<?xml version="1.0" encoding="UTF-8"?>
<svg version="1.1" xmlns="http://www.w3.org/2000/svg" width="378" height="315">
<path d="M0 0 C1.13759766 -0.01998047 2.27519531 -0.03996094 3.44726562 -0.06054688 C13.0555282 -0.05500258 20.4596125 2.09298706 27.6171875 8.66796875 C32.10698247 13.72736457 34.16601597 18.82669969 35.1875 25.4375 C36.40975171 25.43335193 36.40975171 25.43335193 37.65669537 25.42912006 C57.47827956 25.36288322 77.29984468 25.31323061 97.12151623 25.28206348 C106.70710918 25.2665909 116.29262828 25.24549389 125.87817383 25.21118164 C134.23238893 25.18129128 142.58655056 25.16192784 150.94081765 25.15523452 C155.3648451 25.15132164 159.78871954 25.14211772 164.21269798 25.12030983 C168.37656636 25.09995041 172.54021866 25.09366509 176.70413208 25.09817696 C178.2323607 25.09735151 179.76059654 25.09138253 181.28878212 25.07988358 C183.37611083 25.06494748 185.46262479 25.0685498 187.54997253 25.07673645 C188.71788424 25.07397107 189.88579596 25.07120569 191.08909893 25.06835651 C196.37170116 25.69772571 199.75236813 28.51163501 203.1875 32.4375 C206.29995898 41.77487695 203.60008402 52.7100928 201.9375 62.125 C201.7055312 63.46402385 201.47359795 64.80305386 201.24169922 66.14208984 C196.45950144 93.4578838 189.24736516 129.57567715 166.48828125 148.00390625 C152.01947518 157.01927438 131.23899677 154.61019803 114.8125 154.5625 C113.89562408 154.56128143 112.97874817 154.56006287 112.03408813 154.55880737 C97.88558841 154.5368054 83.76509194 154.32981211 69.63427734 153.56542969 C67.45029421 153.45124019 65.26760697 153.36482473 63.08203125 153.2890625 C53.90813626 152.84567517 45.67081067 150.75449739 38.8359375 144.3046875 C22.855992 126.20418052 19.62828831 99.69191564 16.03515625 76.71875 C14.95530922 69.85953913 13.73690791 63.02364021 12.53173828 56.18557739 C12.13375954 53.92476074 11.73868151 51.66345024 11.34375 49.40209961 C10.11002253 42.37630314 8.82056109 35.38386989 7.1875 28.4375 C5.37765625 28.38142578 5.37765625 28.38142578 3.53125 28.32421875 C1.91663822 28.25850781 0.30205622 28.19206229 -1.3125 28.125 C-2.10398437 28.10244141 -2.89546875 28.07988281 -3.7109375 28.05664062 C-10.399206 27.75512032 -16.50533189 26.86002651 -21.3125 21.8125 C-23.23262512 17.49221847 -23.62960247 14.08998143 -22.8125 9.4375 C-18.04938404 -0.45512546 -9.76135018 -0.06022145 0 0 Z M40.1875 51.4375 C43.81359646 90.67782346 43.81359646 90.67782346 59.1875 126.4375 C61.14107157 126.94975341 61.14107157 126.94975341 63.42749023 126.96166992 C64.30698837 127.00148483 65.18648651 127.04129974 66.09263611 127.08232117 C67.05077713 127.11058487 68.00891815 127.13884857 68.99609375 127.16796875 C69.99141617 127.208116 70.98673859 127.24826324 72.01222229 127.28962708 C75.21613103 127.4149873 78.42037305 127.51979213 81.625 127.625 C83.71944996 127.70643374 85.81385228 127.78910266 87.90820312 127.87304688 C100.33815282 128.35118279 112.74923425 128.58173168 125.1875 128.4375 C126.40945068 128.42775146 127.63140137 128.41800293 128.89038086 128.40795898 C132.07891034 128.35468229 135.25277561 128.22235103 138.4375 128.0625 C139.48550781 128.05089844 140.53351563 128.03929687 141.61328125 128.02734375 C146.18934863 127.76701122 149.0713109 127.54913624 152.40209961 124.23193359 C154.19531707 121.70035971 155.73317911 119.17555169 157.1875 116.4375 C157.56865967 115.77419678 157.94981934 115.11089355 158.3425293 114.42749023 C165.34701077 101.96188761 168.5996851 87.64961254 171.65136719 73.83007812 C172.13155376 71.68716902 172.638126 69.5539323 173.1640625 67.421875 C173.43992187 66.29265625 173.71578125 65.1634375 174 64 C174.23332031 63.05253906 174.46664062 62.10507813 174.70703125 61.12890625 C175.23287882 58.18330482 175.2191707 55.42407294 175.1875 52.4375 C142.37108552 51.6404088 109.57490223 51.34388635 76.75 51.375 C75.84045563 51.37585602 74.93091125 51.37671204 73.99380493 51.37759399 C62.72501635 51.38898736 51.45625829 51.4090678 40.1875 51.4375 Z " fill="#253755" transform="translate(82.8125,55.5625)"/>
<path d="M0 0 C5.45755778 2.74231002 7.92455558 5.60145998 10.42578125 11.125 C10.92078125 12.115 10.92078125 12.115 11.42578125 13.125 C12.19915731 19.94592329 11.51078219 25.50343907 7.42578125 31.125 C3.9391969 34.78454806 0.70708873 36.93463098 -4.4296875 37.36328125 C-17.17071745 37.6470791 -17.17071745 37.6470791 -22.57421875 33.125 C-26.76620358 28.56529721 -28.39797166 23.71603437 -28.69921875 17.578125 C-28.39880583 11.6825214 -26.58277856 7.71243179 -22.19921875 3.75 C-15.80773078 -1.4740929 -7.80643099 -2.65347578 0 0 Z " fill="#223453" transform="translate(150.57421875,219.875)"/>
<path d="M0 0 C5.84370438 3.39241266 9.11806529 7.85539011 11.0234375 14.3359375 C12.03847258 19.70112291 10.88992193 24.19532371 8.5859375 29.0859375 C4.85968954 33.69471787 0.99023335 36.79298817 -4.97265625 37.51953125 C-6.25269531 37.52082031 -7.53273437 37.52210938 -8.8515625 37.5234375 C-10.12902344 37.54277344 -11.40648437 37.56210937 -12.72265625 37.58203125 C-18.02487097 36.86945848 -21.04541234 34.53062378 -24.6640625 30.7109375 C-28.03230101 25.65857974 -28.93368141 21.11351686 -28.4140625 15.0859375 C-26.74538438 8.25478647 -23.61818822 4.35227033 -17.8515625 0.2734375 C-12.05427098 -1.72926321 -5.82222635 -2.20453231 0 0 Z " fill="#263857" transform="translate(238.4140625,219.9140625)"/>
<path d="M0 0 C1.81419156 6.89392792 0.13385307 13.23421888 -2.51171875 19.6875 C-4.33190664 24.4302431 -4.70391316 29.08968579 -5.0625 34.125 C-5.48206483 39.71642837 -5.91645737 44.72630288 -8 50 C-8.33 49.34 -8.66 48.68 -9 48 C-9.66 48 -10.32 48 -11 48 C-10.97679687 48.59167969 -10.95359375 49.18335938 -10.9296875 49.79296875 C-10.73228346 58.43644544 -10.73228346 58.43644544 -13 62 C-15.625 63.3125 -15.625 63.3125 -18 64 C-17.73280151 63.20384277 -17.73280151 63.20384277 -17.46020508 62.39160156 C-16.63622801 59.92901855 -15.81719802 57.46484097 -15 55 C-14.73364746 54.19755859 -14.46729492 53.39511719 -14.19287109 52.56835938 C-8.84408591 36.25310669 -5.22365832 19.84142206 -2 3 C-3.87075195 3.00785522 -3.87075195 3.00785522 -5.77929688 3.01586914 C-37.33734084 3.13478596 -68.88249362 2.91500068 -100.4375 2.5 C-101.34704437 2.48804218 -102.25658875 2.47608437 -103.19369507 2.46376419 C-114.46254664 2.31507056 -125.73130915 2.16040566 -137 2 C-137 3.65 -137 5.3 -137 7 C-137.33 7 -137.66 7 -138 7 C-138 5.02 -138 3.04 -138 1 C-120.30234402 0.869527 -102.60468744 0.73913766 -84.90703011 0.60884857 C-76.69013566 0.54835433 -68.47324142 0.48783246 -60.25634766 0.42724609 C-53.09645181 0.37445345 -45.93655558 0.32171211 -38.77665889 0.26903296 C-34.98380752 0.24112513 -31.19095635 0.21319122 -27.39810562 0.18519592 C-23.8310081 0.15886774 -20.26391009 0.13260794 -16.69681168 0.10640144 C-14.7577333 0.09213751 -12.81865546 0.07780031 -10.87957764 0.0634613 C-9.73250336 0.05504715 -8.58542908 0.046633 -7.40359497 0.03796387 C-6.40252779 0.03058952 -5.40146061 0.02321518 -4.37005806 0.01561737 C-2.91339436 0.00601876 -1.45669532 0 0 0 Z " fill="#A1A8B3" transform="translate(260,105)"/>
<path d="M0 0 C0.33 0 0.66 0 1 0 C1.14377642 4.09762794 1.24247507 7.19241775 0.0546875 11.1484375 C-1.44244606 16.61574748 -1.76118908 22.0707299 -2.2109375 27.70507812 C-2.62509851 32.4215151 -3.24634358 36.55009682 -5 41 C-5.33 40.34 -5.66 39.68 -6 39 C-6.66 39 -7.32 39 -8 39 C-7.97679687 39.59167969 -7.95359375 40.18335938 -7.9296875 40.79296875 C-7.73228346 49.43644544 -7.73228346 49.43644544 -10 53 C-12.625 54.3125 -12.625 54.3125 -15 55 C-14.82259277 54.4735791 -14.64518555 53.9471582 -14.46240234 53.40478516 C-8.55853492 35.80059569 -3.62950772 18.21885525 0 0 Z " fill="#898387" transform="translate(257,114)"/>
<path d="M0 0 C1.16273437 -0.00322266 2.32546875 -0.00644531 3.5234375 -0.00976562 C9.16618348 0.02574365 13.66722689 0.31618711 19 2.3125 C17.1875 3.375 17.1875 3.375 15 4.3125 C14.01 3.9825 13.02 3.6525 12 3.3125 C8.00382744 3.07993714 4.00222837 3.1273323 0 3.125 C-1.10601562 3.11275391 -2.21203125 3.10050781 -3.3515625 3.08789062 C-4.94097656 3.08499023 -4.94097656 3.08499023 -6.5625 3.08203125 C-7.53316406 3.07792236 -8.50382812 3.07381348 -9.50390625 3.06958008 C-12.25031826 3.13885289 -12.25031826 3.13885289 -15 5.3125 C-16.65549531 5.69749891 -18.3222433 6.04043135 -20 6.3125 C-19 3.3125 -19 3.3125 -16.75 1.64453125 C-11.18078362 -0.33370082 -5.86302086 -0.08125029 0 0 Z " fill="#818A99" transform="translate(83,55.6875)"/>
<path d="M0 0 C-1.49478114 3.80489745 -3.69442214 5.66190835 -7 8 C-10.34890621 9.11630207 -12.97539261 9.16765424 -16.5 9.1875 C-17.6446875 9.20167969 -18.789375 9.21585937 -19.96875 9.23046875 C-23 9 -23 9 -26 7 C-19.07 7.495 -19.07 7.495 -12 8 C-12 7.34 -12 6.68 -12 6 C-12.66 5.67 -13.32 5.34 -14 5 C-13.01 5 -12.02 5 -11 5 C-10.67 4.34 -10.34 3.68 -10 3 C-9.01 2.67 -8.02 2.34 -7 2 C-7 1.34 -7 0.68 -7 0 C-3.86650268 -1.04449911 -3.01031744 -0.93423645 0 0 Z " fill="#5C6B80" transform="translate(159,248)"/>
<path d="M0 0 C0.66 0.33 1.32 0.66 2 1 C1.45859375 2.01707031 1.45859375 2.01707031 0.90625 3.0546875 C-2.27153022 9.42790228 -4.21261519 14.83918818 -3 22 C-1.74628151 25.20404236 -1.74628151 25.20404236 1.0625 27 C3 28 3 28 3.75 30.125 C3.87375 31.053125 3.87375 31.053125 4 32 C0.17387297 30.49687867 -1.70091967 28.37198449 -4 25 C-6.55290117 19.12832731 -6.81322813 13.84285506 -4.6875 7.8125 C-3.48481946 4.86306914 -2.11385847 2.41583825 0 0 Z " fill="#C0BBB4" transform="translate(216,223)"/>
<path d="M0 0 C3 0 3 0 4.67578125 1.609375 C6.37149862 4.67067007 6.30089294 6.77261665 6.1875 10.25 C6.16042969 11.32765625 6.13335937 12.4053125 6.10546875 13.515625 C6.07066406 14.33546875 6.03585938 15.1553125 6 16 C5.67 15.01 5.34 14.02 5 13 C4.34 13 3.68 13 3 13 C2.34 10.03 1.68 7.06 1 4 C-4.94 3.67 -10.88 3.34 -17 3 C-17 2.67 -17 2.34 -17 2 C-11.39 2 -5.78 2 0 2 C0 1.34 0 0.68 0 0 Z " fill="#7F808B" transform="translate(89,80)"/>
<path d="M0 0 C0.33 0 0.66 0 1 0 C1.05449838 1.72880982 1.09301688 3.45812712 1.125 5.1875 C1.14820313 6.15042969 1.17140625 7.11335937 1.1953125 8.10546875 C0.98795695 11.17847805 0.42039342 13.2743802 -1 16 C-3.625 17.3125 -3.625 17.3125 -6 18 C-4 12 -2 6 0 0 Z " fill="#847E85" transform="translate(248,151)"/>
<path d="M0 0 C0.33 0 0.66 0 1 0 C1.86879579 3.7467656 2.71747243 7.4978086 3.5625 11.25 C3.80935547 12.31347656 4.05621094 13.37695312 4.31054688 14.47265625 C4.53935547 15.49746094 4.76816406 16.52226562 5.00390625 17.578125 C5.21861572 18.52075195 5.4333252 19.46337891 5.65454102 20.43457031 C5.99909986 22.99331539 5.819982 24.57743919 5 27 C2.70986347 23.5647952 2.82157027 22.014669 3 18 C2.34 18 1.68 18 1 18 C0.67 12.06 0.34 6.12 0 0 Z " fill="#7C99B6" transform="translate(127,136)"/>
<path d="M0 0 C4.43288884 1.97017282 6.30747294 4.395032 8.28515625 8.66015625 C9.53224407 12.74215409 9.31121726 16.78127716 9 21 C8.67 21 8.34 21 8 21 C7.67 17.37 7.34 13.74 7 10 C5.68 9.67 4.36 9.34 3 9 C0 3.10714286 0 3.10714286 0 0 Z " fill="#7A91AA" transform="translate(153,222)"/>
<path d="M0 0 C1.13480527 3.60993172 1.10015767 6.9842327 1.0625 10.75 C1.05347656 11.92046875 1.04445313 13.0909375 1.03515625 14.296875 C1.02355469 15.18890625 1.01195313 16.0809375 1 17 C1.99 17.33 2.98 17.66 4 18 C5.1875 21.0625 5.1875 21.0625 6 24 C2.44808993 22.81602998 1.58954778 21.3981547 -0.140625 18.1640625 C-2.21809302 12.93262031 -2.46150532 7.78448725 -1.0625 2.375 C-0.711875 1.59125 -0.36125 0.8075 0 0 Z " fill="#DBD0C5" transform="translate(124,229)"/>
<path d="M0 0 C0.99 0 1.98 0 3 0 C2.6999825 3.50020422 2.04266259 4.94904191 -0.25 7.6875 C-2.83562327 9.86177411 -4.80636682 10.99628672 -8 12 C-7.67 10.35 -7.34 8.7 -7 7 C-6.01 7.33 -5.02 7.66 -4 8 C-4 7.34 -4 6.68 -4 6 C-3.34 6 -2.68 6 -2 6 C-1.34 4.02 -0.68 2.04 0 0 Z " fill="#6B859B" transform="translate(245,244)"/>
<path d="M0 0 C0.33 0 0.66 0 1 0 C1.50612064 2.8740422 2.00506541 5.74902873 2.5 8.625 C2.64308594 9.43324219 2.78617187 10.24148437 2.93359375 11.07421875 C3.67876251 15.43877864 4.17272306 19.55238129 4 24 C1.92329908 22.31011183 1.07665372 21.40213987 0.56762695 18.73168945 C0.54144287 17.86761475 0.51525879 17.00354004 0.48828125 16.11328125 C0.45283203 15.17548828 0.41738281 14.23769531 0.38085938 13.27148438 C0.35830078 12.29501953 0.33574219 11.31855469 0.3125 10.3125 C0.27833984 9.32443359 0.24417969 8.33636719 0.20898438 7.31835938 C0.12649462 4.87901947 0.05734932 2.44003937 0 0 Z " fill="#8DAAC2" transform="translate(123,112)"/>
<path d="M0 0 C1.03121063 3.09363189 1.54712855 4.79538994 1 8 C-2 10.3125 -2 10.3125 -5 12 C-5.66 11.67 -6.32 11.34 -7 11 C-4.69 7.37 -2.38 3.74 0 0 Z " fill="#787983" transform="translate(241,169)"/>
<path d="M0 0 C4.01476736 6.02215104 4.28573751 11.99943109 4 19 C0.42795894 15.42795894 0.15277779 9.70703146 -0.125 4.78515625 C-0.125 3.18956004 -0.06930827 1.59409022 0 0 Z " fill="#403E47" transform="translate(102,137)"/>
<path d="M0 0 C0.79921875 0.00902344 1.5984375 0.01804688 2.421875 0.02734375 C3.02515625 0.03894531 3.6284375 0.05054688 4.25 0.0625 C4.25 0.7225 4.25 1.3825 4.25 2.0625 C3.23679688 2.15337891 3.23679688 2.15337891 2.203125 2.24609375 C1.31109375 2.32988281 0.4190625 2.41367188 -0.5 2.5 C-1.38171875 2.58121094 -2.2634375 2.66242188 -3.171875 2.74609375 C-5.44350452 3.02488465 -7.54851823 3.45040577 -9.75 4.0625 C-9.75 4.7225 -9.75 5.3825 -9.75 6.0625 C-10.74 5.7325 -11.73 5.4025 -12.75 5.0625 C-12.09 5.0625 -11.43 5.0625 -10.75 5.0625 C-10.75 4.4025 -10.75 3.7425 -10.75 3.0625 C-10.09 3.0625 -9.43 3.0625 -8.75 3.0625 C-8.75 2.4025 -8.75 1.7425 -8.75 1.0625 C-5.75519083 0.1901588 -3.11424089 -0.04579766 0 0 Z " fill="#253247" transform="translate(142.75,219.9375)"/>
<path d="M0 0 C2.34914492 2.34914492 2.73140357 3.95679446 3.625 7.125 C3.88539063 8.03507813 4.14578125 8.94515625 4.4140625 9.8828125 C4.70410156 10.93082031 4.70410156 10.93082031 5 12 C3.68 11.67 2.36 11.34 1 11 C1 9.68 1 8.36 1 7 C0.01 6.67 -0.98 6.34 -2 6 C-1.34 4.02 -0.68 2.04 0 0 Z " fill="#5D7998" transform="translate(133,163)"/>
<path d="M0 0 C-1.36983503 3.16115776 -1.9890638 3.9927092 -5 6 C-5 5.34 -5 4.68 -5 4 C-5.66 4 -6.32 4 -7 4 C-7 2.68 -7 1.36 -7 0 C-3.86650268 -1.04449911 -3.01031744 -0.93423645 0 0 Z " fill="#465E7B" transform="translate(159,248)"/>
<path d="M0 0 C0 0.66 0 1.32 0 2 C-0.66 2 -1.32 2 -2 2 C-2 2.66 -2 3.32 -2 4 C-2.66 4 -3.32 4 -4 4 C-3.67 5.32 -3.34 6.64 -3 8 C-3.99 8.33 -4.98 8.66 -6 9 C-6.33 8.34 -6.66 7.68 -7 7 C-7.99 7.495 -7.99 7.495 -9 8 C-7.47364599 4.11473526 -4.49771687 0 0 0 Z " fill="#787C88" transform="translate(134,221)"/>
<path d="M0 0 C-0.99 2.97 -1.98 5.94 -3 9 C-3.33 8.34 -3.66 7.68 -4 7 C-4.66 7 -5.32 7 -6 7 C-5.6875 4.625 -5.6875 4.625 -5 2 C-2 0 -2 0 0 0 Z " fill="#252F47" transform="translate(222,222)"/>
<path d="M0 0 C3.12270126 2.51830747 3.94523098 3.7261549 4.75 7.75 C4.8325 8.8225 4.915 9.895 5 11 C3.0625 10 3.0625 10 1 8 C0.33450549 5.30075428 0.18319237 2.79368363 0 0 Z " fill="#5B7A98" transform="translate(112,68)"/>
<path d="M0 0 C0.66 0.33 1.32 0.66 2 1 C0.35 4.63 -1.3 8.26 -3 12 C-3.33 12 -3.66 12 -4 12 C-4.33292585 7.75519536 -4.43885872 5.64457375 -2 2.0625 C-1.34 1.381875 -0.68 0.70125 0 0 Z " fill="#827D84" transform="translate(216,223)"/>
<path d="M0 0 C0.33 0 0.66 0 1 0 C1.18175781 0.87011719 1.18175781 0.87011719 1.3671875 1.7578125 C2.33735474 6.28028442 3.43397783 10.63750966 5 15 C2 14 2 14 0.8203125 12.265625 C-0.13874367 9.61680319 -0.19893014 7.55934533 -0.125 4.75 C-0.09792969 3.41195312 -0.09792969 3.41195312 -0.0703125 2.046875 C-0.04710937 1.37140625 -0.02390625 0.6959375 0 0 Z " fill="#2C303D" transform="translate(212,235)"/>
<path d="M0 0 C0.99 0.495 0.99 0.495 2 1 C2.73075648 3.3140622 3.40138258 5.64828869 4 8 C4.99 8 5.98 8 7 8 C7 9.98 7 11.96 7 14 C4.44736912 11.725306 3.15855185 9.56797307 1.8125 6.4375 C1.46832031 5.65246094 1.12414062 4.86742187 0.76953125 4.05859375 C0 2 0 2 0 0 Z " fill="#BBB2B3" transform="translate(110,178)"/>
<path d="M0 0 C1.485 0.99 1.485 0.99 3 2 C3.99 1.34 4.98 0.68 6 0 C6.33 1.65 6.66 3.3 7 5 C7.99 5.33 8.98 5.66 10 6 C5.8333396 5.52651586 3.07115285 4.95303159 0 2 C0 1.34 0 0.68 0 0 Z " fill="#8D909A" transform="translate(62,76)"/>
<path d="M0 0 C0.33 0 0.66 0 1 0 C1 1.98 1 3.96 1 6 C1.99 6.33 2.98 6.66 4 7 C5.1875 10.0625 5.1875 10.0625 6 13 C3 12 3 12 1.3125 9.875 C-0.274286 6.39918304 -0.2222986 3.77907627 0 0 Z " fill="#8F8C8F" transform="translate(124,240)"/>
<path d="M0 0 C4.84717418 2.48908945 6.62111262 5.24222524 9 10 C4.71095765 8.4114658 2.67654474 5.56872632 0 2 C0 1.34 0 0.68 0 0 Z " fill="#B4AFB0" transform="translate(117,192)"/>
<path d="M0 0 C0.33 0 0.66 0 1 0 C1.36552803 1.41377782 1.71695495 2.83120576 2.0625 4.25 C2.25972656 5.03890625 2.45695313 5.8278125 2.66015625 6.640625 C3.01497267 9.10394822 2.76877544 10.65604132 2 13 C-0.20914 9.68629 -0.22481553 8.6553979 -0.125 4.8125 C-0.10695312 3.91144531 -0.08890625 3.01039063 -0.0703125 2.08203125 C-0.04710937 1.39496094 -0.02390625 0.70789063 0 0 Z " fill="#84A4BC" transform="translate(130,150)"/>
<path d="M0 0 C0.66 0.33 1.32 0.66 2 1 C0.02 5.455 0.02 5.455 -2 10 C-3.07529543 5.69881829 -2.84830433 4.79929223 -1 1 C-0.67 0.67 -0.34 0.34 0 0 Z " fill="#373647" transform="translate(127,227)"/>
<path d="M0 0 C0.66 0 1.32 0 2 0 C1.8125 1.875 1.8125 1.875 1 4 C-1.5625 5.25 -1.5625 5.25 -4 6 C-3.67 4.35 -3.34 2.7 -3 1 C-2.01 1.33 -1.02 1.66 0 2 C0 1.34 0 0.68 0 0 Z " fill="#4B5D7C" transform="translate(241,250)"/>
<path d="M0 0 C0.99 0.66 1.98 1.32 3 2 C2.67 3.65 2.34 5.3 2 7 C0.68 6.67 -0.64 6.34 -2 6 C-1.34 4.02 -0.68 2.04 0 0 Z " fill="#4A617F" transform="translate(243,224)"/>
<path d="M0 0 C0.33 0 0.66 0 1 0 C1.66 3.3 2.32 6.6 3 10 C2.01 10 1.02 10 0 10 C-1.125 3.375 -1.125 3.375 0 0 Z " fill="#3D3B47" transform="translate(62,66)"/>
<path d="M0 0 C1.32 0.66 2.64 1.32 4 2 C2.03533587 3.06775224 0.03144641 4.06553465 -2 5 C-2.66 4.67 -3.32 4.34 -4 4 C-2.68 2.68 -1.36 1.36 0 0 Z " fill="#748295" transform="translate(244,202)"/>
<path d="M0 0 C0.99 0 1.98 0 3 0 C1.92598892 2.91517292 1.22189824 4.77810176 -1 7 C-1.33 5.35 -1.66 3.7 -2 2 C-1.34 2 -0.68 2 0 2 C0 1.34 0 0.68 0 0 Z " fill="#6486A1" transform="translate(261,183)"/>
<path d="M0 0 C0.33 0 0.66 0 1 0 C1.29296875 6.0546875 1.29296875 6.0546875 1 8 C0.01 8.66 -0.98 9.32 -2 10 C-1.34 6.7 -0.68 3.4 0 0 Z " fill="#BAABA9" transform="translate(251,141)"/>
<path d="M0 0 C0.99 0 1.98 0 3 0 C2.67 3.3 2.34 6.6 2 10 C1.67 10 1.34 10 1 10 C0.67 6.7 0.34 3.4 0 0 Z " fill="#183863" transform="translate(281,112)"/>
</svg>
