<?xml version="1.0" encoding="UTF-8"?>
<svg version="1.1" xmlns="http://www.w3.org/2000/svg" width="311" height="249">
<path d="M0 0 C5.58734263 0.72624911 11.1695816 1.36782102 16.78125 1.87890625 C39.69092687 4.0062893 59.00687962 8.89944039 79.20703125 20.05859375 C80.05982666 20.52628174 80.91262207 20.99396973 81.79125977 21.47583008 C83.43714552 22.38921938 85.07249604 23.32193281 86.69506836 24.27612305 C91.16366782 26.82841227 91.16366782 26.82841227 96.18359375 26.7578125 C99.44290193 25.05076642 102.67781906 23.31984123 105.875 21.5 C130.01904755 8.26262995 158.4146525 4.17489215 185.625 3.8125 C186.55779785 3.79026367 187.4905957 3.76802734 188.45166016 3.74511719 C194.46210094 3.76484871 199.06126555 4.80713213 204.0625 8.25 C209.508963 14.1154217 209.35145496 18.49695731 209.6171875 26.2109375 C209.65923309 27.4223642 209.70127869 28.63379089 209.74459839 29.88192749 C210.34497032 48.94524552 210.21232877 68.02783136 210.19287109 87.09814453 C210.18714018 92.76785693 210.19048917 98.43752231 210.19644356 104.10723305 C210.20008441 108.54292139 210.1988951 112.97859887 210.19631577 117.41428757 C210.19565802 119.50388978 210.1964336 121.59349304 210.19879532 123.68309402 C210.20456184 130.20647665 210.16948257 136.72744649 210.0625 143.25 C210.04929466 144.11630791 210.03608932 144.98261581 210.02248383 145.87517548 C209.97355938 148.34836612 209.89483175 150.81855043 209.80419922 153.29052734 C209.7838219 154.3725666 209.7838219 154.3725666 209.76303291 155.47646523 C209.52976662 160.4577298 208.22030372 163.41894931 205.0625 167.25 C200.1873884 169.996336 195.71317929 170.7252211 190.20703125 170.875 C189.47174698 170.90676331 188.73646271 170.93852661 187.97889709 170.97125244 C186.41654237 171.03869917 184.85395553 171.10094457 183.29119873 171.1583252 C179.22220017 171.31271012 175.15617633 171.5220913 171.08984375 171.734375 C170.29588196 171.77568542 169.50192017 171.81699585 168.68389893 171.85955811 C146.77560993 173.05009515 120.8635899 177.64505511 104.1015625 193.0859375 C100.91291509 194.90627645 97.67346072 195.30393267 94.0625 195.25 C90.5546875 194.23828125 90.5546875 194.23828125 86.9375 192.5625 C86.27153809 192.25723389 85.60557617 191.95196777 84.91943359 191.63745117 C77.75822954 188.27114952 70.83667068 184.41043724 63.95263672 180.51489258 C55.00666294 175.49251958 46.11504138 171.95607324 36.125 169.625 C35.22185059 169.41262695 34.31870117 169.20025391 33.38818359 168.98144531 C22.92429234 166.62611121 12.40887962 165.6172151 1.71875 164.984375 C0.69563721 164.9229834 0.69563721 164.9229834 -0.34814453 164.86035156 C-2.17668318 164.75762978 -4.00631398 164.6748863 -5.8359375 164.59375 C-11.16404124 164.00322969 -14.5103646 162.38619789 -17.9375 158.25 C-19.80734918 154.44195995 -20.1317568 151.60064821 -19.91378784 147.38682556 C-19.86209505 146.23679078 -19.81040226 145.086756 -19.75714302 143.90187168 C-19.69274969 142.66702502 -19.62835636 141.43217836 -19.56201172 140.15991211 C-19.4476488 137.5202499 -19.33615495 134.88069127 -19.23040771 132.24069214 C-19.2029612 131.57004646 -19.17551469 130.89940077 -19.14723647 130.2084325 C-18.75639386 120.22655401 -18.85947501 110.24206971 -18.92346573 100.25488472 C-18.94607538 96.56697065 -18.95976083 92.87911185 -18.97116089 89.19114685 C-19.00425694 78.73258309 -19.04681892 68.27410775 -19.10888672 57.81567383 C-19.14648979 51.35671661 -19.16952839 44.89784532 -19.18319321 38.43879509 C-19.19122753 35.99594615 -19.20480806 33.55310873 -19.22412491 31.11032295 C-19.25055747 27.71870164 -19.25849081 24.3275024 -19.26220703 20.93579102 C-19.28074234 19.43751266 -19.28074234 19.43751266 -19.2996521 17.90896606 C-19.28431542 12.61005843 -18.99390969 8.79036091 -15.9375 4.25 C-10.26965118 -0.1189668 -7.00120116 -0.92323532 0 0 Z M9.0625 28.25 C9.0625 64.55 9.0625 100.85 9.0625 138.25 C20.4475 139.735 20.4475 139.735 32.0625 141.25 C36.01538541 142.09400723 39.7243872 142.91839125 43.5625 144.0625 C44.46282959 144.31966797 45.36315918 144.57683594 46.29077148 144.84179688 C58.71156393 148.48525888 70.38882762 153.69860774 82.0625 159.25 C83.24995424 154.55822318 83.22320553 150.00100283 83.23046875 145.1953125 C83.23533798 144.28563721 83.24020721 143.37596191 83.245224 142.4387207 C83.27774587 133.93967171 83.21069064 125.44100517 83.12591553 116.94241333 C83.05963257 109.61674152 83.10132681 102.29952305 83.20594788 94.97439575 C83.25881461 89.98756147 83.23450073 85.00291325 83.1937561 80.01605225 C83.18960832 77.60204212 83.21659171 75.18776438 83.27572632 72.7744751 C84.05397001 60.27085809 84.05397001 60.27085809 79.32058716 49.26422119 C74.40334665 45.40509255 68.90144465 43.31033807 63.0625 41.25 C61.63739478 40.6533451 60.21728519 40.04455903 58.8034668 39.42163086 C55.26418188 37.8811726 51.69795579 36.54487583 48.0625 35.25 C47.08023438 34.87230469 46.09796875 34.49460937 45.0859375 34.10546875 C33.94112994 30.17979115 20.87071151 28.25 9.0625 28.25 Z M157.5625 32.5 C156.36596802 32.70351074 156.36596802 32.70351074 155.14526367 32.91113281 C142.57631267 35.13412724 130.52867592 38.49682417 119.08342743 44.24081898 C117.73205866 44.91564564 116.36248941 45.55514646 114.97783661 46.15874004 C111.79862046 47.75896399 109.49783009 48.93830979 108.3392334 52.42926979 C108.07442531 55.22641308 108.07285223 57.92296128 108.15429688 60.73168945 C108.15312866 61.78580521 108.15196045 62.83992096 108.15075684 63.92597961 C108.15632575 67.40642566 108.21852734 70.88343483 108.28125 74.36328125 C108.29617262 76.77750273 108.30755953 79.19174844 108.31555176 81.60600281 C108.34608313 87.95735679 108.42465854 94.30724487 108.51318359 100.65802002 C108.59505127 107.13965015 108.63156544 113.62151739 108.671875 120.10351562 C108.7576486 132.8196355 108.89263098 145.53473975 109.0625 158.25 C110.28718994 157.7648996 111.51187988 157.27979919 112.77368164 156.77999878 C114.40243649 156.13945002 116.03126529 155.49908928 117.66015625 154.85888672 C118.46473267 154.53961716 119.26930908 154.2203476 120.0982666 153.8914032 C126.32468176 151.4507166 132.49262793 149.65325837 139.0625 148.375 C140.46048828 148.07722656 140.46048828 148.07722656 141.88671875 147.7734375 C151.77366364 145.73261763 161.61835796 145.09752514 171.6875 144.6875 C172.69167969 144.64431641 173.69585937 144.60113281 174.73046875 144.55664062 C177.17438383 144.45190141 179.61837617 144.34972744 182.0625 144.25 C183.28601007 133.84491005 183.40410815 123.3999801 183.625 112.9375 C183.64551422 111.99338257 183.66602844 111.04926514 183.68716431 110.07653809 C183.80611714 104.56343939 183.91609474 99.05022611 184.0189209 93.5368042 C184.05560372 91.61188085 184.0961969 89.68703259 184.13769531 87.76220703 C184.5228565 68.90562925 183.16295608 50.06604285 182.0625 31.25 C173.79761037 31.12676606 165.72587409 31.05399464 157.5625 32.5 Z " fill="#1D3050" transform="translate(56.9375,34.75)"/>
<path d="M0 0 C0.33 0 0.66 0 1 0 C4.87161381 18.84655742 4.46225586 37.87104282 4.39111328 57.01416016 C4.37389761 61.71301373 4.38397685 66.41135761 4.40183067 71.11019325 C4.41271855 74.77187891 4.40920147 78.43344531 4.4014473 82.09513474 C4.39946563 83.82768186 4.40183186 85.5602403 4.40888596 87.2927742 C4.43897141 96.739507 4.06575571 104.94277732 1 114 C-2.63 114 -6.26 114 -10 114 C-10 113.67 -10 113.34 -10 113 C-6.7 113 -3.4 113 0 113 C0.14523561 105.85487135 0.28749756 98.70969121 0.42724609 91.56445312 C0.47497229 89.14419029 0.52344922 86.72394213 0.57275391 84.30371094 C0.82019133 72.13382926 1.04530488 59.96567729 1.0625 47.79296875 C1.06479614 46.92296234 1.06709229 46.05295593 1.06945801 45.15658569 C1.06212969 39.18232239 0.76505812 33.26817588 0.35264587 27.3079071 C-0.26857145 18.21993298 -0.08008808 9.10334506 0 0 Z " fill="#4A3F4A" transform="translate(239,66)"/>
<path d="M0 0 C2.46571357 0.3522448 4.01762529 1.01168197 6.10253906 2.39355469 C9.07481138 6.47641357 8.60329508 10.52233825 8.609375 15.453125 C8.62600189 16.51608292 8.64262878 17.57904083 8.65975952 18.67420959 C8.70943326 22.19953727 8.73021293 25.72438729 8.75 29.25 C8.77718931 31.7203108 8.80569239 34.19060746 8.83544922 36.66088867 C8.92081876 44.44049305 8.96223854 52.22004358 9 60 C9.01510239 62.5118827 9.03039883 65.02376425 9.04589844 67.53564453 C9.20360301 95.03855118 9.13010824 122.51672931 8 150 C7.67 150 7.34 150 7 150 C6.98969254 148.8471199 6.97938507 147.69423981 6.96876526 146.50642395 C6.8691587 135.4097211 6.76632372 124.31305178 6.66066074 113.21640491 C6.60648935 107.51741078 6.55329245 101.81841175 6.50268555 96.11938477 C6.2320248 65.73935528 5.76437875 35.37177536 5 5 C3.68 4.67 2.36 4.34 1 4 C0.67 2.68 0.34 1.36 0 0 Z " fill="#122E5B" transform="translate(257,44)"/>
<path d="M0 0 C2.50149258 2.909996 3.37450074 4.65975408 3.35644531 8.49536133 C3.35944641 9.38181839 3.36244751 10.26827545 3.36553955 11.18159485 C3.35319275 12.13873886 3.34084595 13.09588287 3.328125 14.08203125 C3.32625183 15.08723312 3.32437866 16.092435 3.32244873 17.12809753 C3.31571946 19.26747938 3.30178773 21.40684873 3.28125 23.54614258 C3.2507447 26.73466142 3.24033556 29.92267932 3.234375 33.11132812 C3.19056384 44.51258708 2.9189253 55.88630973 2.34857178 67.27375793 C1.9541062 75.18900674 1.89649334 83.07599037 2 91 C-1.41758156 88.07199054 -1.55996179 85.85383133 -1.90719604 81.52737427 C-2.06391807 77.25928866 -1.85035643 73.03813583 -1.59765625 68.77734375 C-0.87723232 54.71088467 -0.66052677 40.64413741 -0.4375 26.5625 C-0.39415986 23.96939635 -0.35054158 21.37629734 -0.30664062 18.78320312 C-0.20123336 12.52218499 -0.09921052 6.26111924 0 0 Z " fill="#282A3E" transform="translate(39,103)"/>
<path d="M0 0 C0.99 0.33 1.98 0.66 3 1 C3.17036751 6.79404048 3.33056478 12.58825088 3.48217773 18.3828125 C3.53486278 20.34545063 3.59011304 22.30802194 3.64819336 24.27050781 C4.02023459 36.9134394 3.94010698 49.38354863 3 62 C2.67 62 2.34 62 2 62 C1.19456236 58.4052811 0.82328951 54.98685315 0.68701172 51.30761719 C0.62222122 49.63128204 0.62222122 49.63128204 0.55612183 47.92108154 C0.5143985 46.72509338 0.47267517 45.52910522 0.4296875 44.296875 C0.38433868 43.0633429 0.33898987 41.82981079 0.29226685 40.55889893 C0.17368446 37.29119757 0.05921496 34.02338101 -0.05407715 30.75549316 C-0.1251509 28.74573288 -0.19985003 26.73614108 -0.27587891 24.7265625 C-0.42106267 20.87517295 -0.55926287 17.02359685 -0.6953125 13.171875 C-0.74108429 11.96778992 -0.78685608 10.76370483 -0.83401489 9.52313232 C-0.87090424 8.4181842 -0.90779358 7.31323608 -0.94580078 6.17480469 C-0.98053497 5.19727234 -1.01526917 4.21973999 -1.05105591 3.21258545 C-1 1 -1 1 0 0 Z " fill="#493C43" transform="translate(138,84)"/>
<path d="M0 0 C0 0.33 0 0.66 0 1 C-3.52866389 2.05859917 -6.63574394 2.96563622 -10.3125 3.3125 C-11.6428125 3.6528125 -11.6428125 3.6528125 -13 4 C-14.84872276 7.53898287 -15.2632756 10.56978025 -15.31884766 14.5246582 C-15.33871735 15.60540115 -15.35858704 16.6861441 -15.37905884 17.79963684 C-15.39061005 18.9550145 -15.40216125 20.11039215 -15.4140625 21.30078125 C-15.43342865 22.49229294 -15.4527948 23.68380463 -15.4727478 24.91142273 C-15.53245896 28.71170932 -15.57889581 32.51202634 -15.625 36.3125 C-15.6631875 38.89128915 -15.70223968 41.47006565 -15.7421875 44.04882812 C-15.83815369 50.36577302 -15.92322616 56.68279428 -16 63 C-16.33 63 -16.66 63 -17 63 C-17 55.74 -17 48.48 -17 41 C-17.66 40.67 -18.32 40.34 -19 40 C-19.07453622 35.8374388 -19.12878254 31.6752382 -19.16479492 27.51220703 C-19.17981825 26.09807563 -19.20024305 24.68399032 -19.22631836 23.27001953 C-19.26298954 21.22937603 -19.27979036 19.18935208 -19.29296875 17.1484375 C-19.3086792 15.92302246 -19.32438965 14.69760742 -19.34057617 13.43505859 C-18.96120138 9.60867626 -18.01513537 7.25687375 -16 4 C-10.28005267 -0.40912607 -7.06788036 -1.2002061 0 0 Z " fill="#554148" transform="translate(57,35)"/>
<path d="M0 0 C0.33 0 0.66 0 1 0 C1 20.79 1 41.58 1 63 C-0.485 63.495 -0.485 63.495 -2 64 C-1.88001245 57.77839462 -1.75569295 51.55689477 -1.62768555 45.33544922 C-1.58488331 43.22739905 -1.54318135 41.1193262 -1.50268555 39.01123047 C-1.25162824 25.98724498 -0.83730147 13.00026107 0 0 Z " fill="#282E3D" transform="translate(141,128)"/>
<path d="M0 0 C0.33 0 0.66 0 1 0 C1.33 12.21 1.66 24.42 2 37 C-1.96819988 33.03180012 -1.80601346 30.42262383 -2 25 C-1.99045343 21.01294285 -1.82774733 17.04395067 -1.625 13.0625 C-1.58117188 12.02287109 -1.53734375 10.98324219 -1.4921875 9.91210938 C-1.13411365 2.2682273 -1.13411365 2.2682273 0 0 Z " fill="#594846" transform="translate(39,157)"/>
<path d="M0 0 C0.99 0 1.98 0 3 0 C4.7473211 5.24196329 3.97898857 10.88245952 3.81298828 16.36108398 C3.75013766 18.55768873 3.7087789 20.75406152 3.66796875 22.95117188 C3.62892878 24.34378776 3.58860781 25.73636846 3.546875 27.12890625 C3.51432617 28.39806885 3.48177734 29.66723145 3.44824219 30.97485352 C3.30032227 31.97315186 3.15240234 32.9714502 3 34 C2.01 34.66 1.02 35.32 0 36 C-0.16724111 31.03396287 -0.32783783 26.06777322 -0.48217773 21.10131836 C-0.53567115 19.41050377 -0.59100598 17.71974642 -0.64819336 16.02905273 C-0.72990041 13.60412953 -0.80506395 11.17908006 -0.87890625 8.75390625 C-0.90594131 7.99348526 -0.93297638 7.23306427 -0.96083069 6.44960022 C-1.01291299 4.63376666 -1.01186585 2.81654157 -1 1 C-0.67 0.67 -0.34 0.34 0 0 Z " fill="#0E315C" transform="translate(163,82)"/>
<path d="M0 0 C0.33 0 0.66 0 1 0 C3.04528428 12.43126684 4.48167015 24.38737805 4 37 C3.67 37 3.34 37 3 37 C2.34 31.72 1.68 26.44 1 21 C0.67 21 0.34 21 0 21 C0 14.07 0 7.14 0 0 Z " fill="#3E3942" transform="translate(239,66)"/>
<path d="M0 0 C0.66 0.66 1.32 1.32 2 2 C4.58354218 2.16687448 4.58354218 2.16687448 7 2 C7.66 3.32 8.32 4.64 9 6 C10.65 6 12.3 6 14 6 C14.33 6.99 14.66 7.98 15 9 C15.66 9.33 16.32 9.66 17 10 C12.38871695 9.26761975 8.21827311 7.71199443 3.875 6.0625 C2.80185547 5.66514648 2.80185547 5.66514648 1.70703125 5.25976562 C-1.46064181 4.06670745 -4.17196825 2.8853545 -7 1 C-4.48718205 -0.25640898 -2.78302919 -0.20872719 0 0 Z " fill="#1E293D" transform="translate(103,66)"/>
<path d="M0 0 C2.5 1.375 2.5 1.375 5 3 C5 3.66 5 4.32 5 5 C5.99 5 6.98 5 8 5 C8.33 5.66 8.66 6.32 9 7 C9.96421875 6.97679687 10.9284375 6.95359375 11.921875 6.9296875 C13.81679688 6.90261719 13.81679688 6.90261719 15.75 6.875 C17.00296875 6.85179687 18.2559375 6.82859375 19.546875 6.8046875 C22.72820492 6.98462698 24.36521896 7.31001418 27 9 C23.14885973 10.3033121 19.57969154 9.95425107 15.5625 9.6875 C14.26441406 9.60886719 12.96632813 9.53023437 11.62890625 9.44921875 C7.54501715 8.94367812 4.47305776 8.1174921 1.1875 5.625 C0 4 0 4 0 0 Z " fill="#232A3C" transform="translate(40,190)"/>
<path d="M0 0 C0.66 0 1.32 0 2 0 C1.67 11.22 1.34 22.44 1 34 C0.67 34 0.34 34 0 34 C-0.19904662 30.02132438 -0.38211694 26.04206199 -0.5625 22.0625 C-0.61857422 20.94552734 -0.67464844 19.82855469 -0.73242188 18.67773438 C-1.01270914 12.30587052 -0.90419952 6.31600106 0 0 Z " fill="#302E48" transform="translate(40,144)"/>
<path d="M0 0 C0.33 0 0.66 0 1 0 C1.33 10.23 1.66 20.46 2 31 C1.01 31.33 0.02 31.66 -1 32 C-0.67 21.44 -0.34 10.88 0 0 Z " fill="#212831" transform="translate(140,160)"/>
<path d="M0 0 C0 0.66 0 1.32 0 2 C-5.61 2.66 -11.22 3.32 -17 4 C-17 4.66 -17 5.32 -17 6 C-16.34 6.33 -15.68 6.66 -15 7 C-15.99 7.33 -16.98 7.66 -18 8 C-18.33 7.01 -18.66 6.02 -19 5 C-20.65 4.67 -22.3 4.34 -24 4 C-24 3.67 -24 3.34 -24 3 C-20.37529707 2.4978304 -16.7501911 1.99863223 -13.125 1.5 C-12.09246094 1.35691406 -11.05992187 1.21382812 -9.99609375 1.06640625 C-9.00996094 0.93105469 -8.02382812 0.79570313 -7.0078125 0.65625 C-6.09660645 0.53056641 -5.18540039 0.40488281 -4.24658203 0.27539062 C-2 0 -2 0 0 0 Z " fill="#131D30" transform="translate(229,39)"/>
<path d="M0 0 C3.99178241 0.42018762 7.8612223 1.40535727 11.75 2.375 C12.69359375 2.60960937 13.6371875 2.84421875 14.609375 3.0859375 C17 4 17 4 19 7 C16.415141 6.3808361 13.83223828 5.75492318 11.25 5.125 C10.52039063 4.95097656 9.79078125 4.77695313 9.0390625 4.59765625 C5.46714972 3.72091402 2.20626159 2.87313177 -1 1 C-0.67 0.67 -0.34 0.34 0 0 Z " fill="#1E283D" transform="translate(89,201)"/>
<path d="M0 0 C0 0.33 0 0.66 0 1 C-11.875 4.5625 -11.875 4.5625 -15 3 C-9.55326697 -0.29633454 -6.25490443 -1.56372611 0 0 Z " fill="#212A3C" transform="translate(57,35)"/>
<path d="M0 0 C0.33 0 0.66 0 1 0 C1.33 3.3 1.66 6.6 2 10 C2.33 10 2.66 10 3 10 C3 11.98 3 13.96 3 16 C2.01 16 1.02 16 0 16 C-1.30267176 10.49983036 -0.71033431 5.52967941 0 0 Z " fill="#102D52" transform="translate(63,160)"/>
<path d="M0 0 C1.60746056 0.42523816 3.21089836 0.86570126 4.8125 1.3125 C6.15248047 1.67794922 6.15248047 1.67794922 7.51953125 2.05078125 C10.05247738 3.0200819 11.2716496 3.95009604 13 6 C12.67 6.66 12.34 7.32 12 8 C9.99743426 6.85865673 7.99800203 5.71181367 6 4.5625 C4.88625 3.92441406 3.7725 3.28632813 2.625 2.62890625 C1.75875 2.09136719 0.8925 1.55382812 0 1 C0 0.67 0 0.34 0 0 Z " fill="#1E2638" transform="translate(123,215)"/>
<path d="M0 0 C4.28577219 -0.36539443 6.34492062 0.51576402 9.8125 3 C10.60269531 3.556875 11.39289063 4.11375 12.20703125 4.6875 C12.79871094 5.120625 13.39039062 5.55375 14 6 C13.01 6.495 13.01 6.495 12 7 C9.1796875 5.78515625 9.1796875 5.78515625 5.875 4.0625 C4.77929688 3.49660156 3.68359375 2.93070313 2.5546875 2.34765625 C1.71164063 1.90292969 0.86859375 1.45820313 0 1 C0 0.67 0 0.34 0 0 Z " fill="#22293C" transform="translate(109,208)"/>
<path d="M0 0 C5.94 0.99 5.94 0.99 12 2 C12 2.33 12 2.66 12 3 C7.05 3.33 2.1 3.66 -3 4 C-2.67 3.34 -2.34 2.68 -2 2 C-1.34 2.33 -0.68 2.66 0 3 C0 2.01 0 1.02 0 0 Z " fill="#1E2B43" transform="translate(217,203)"/>
<path d="M0 0 C-3.72965139 2.03435531 -5.66905042 3 -10 3 C-10 2.34 -10 1.68 -10 1 C-3.71428571 -1.42857143 -3.71428571 -1.42857143 0 0 Z " fill="#182238" transform="translate(192,185)"/>
<path d="M0 0 C2.97 0.495 2.97 0.495 6 1 C6 1.66 6 2.32 6 3 C6.99 3 7.98 3 9 3 C9 3.66 9 4.32 9 5 C5.22454612 3.90931332 2.52956528 3.0916909 0 0 Z " fill="#23283E" transform="translate(122,77)"/>
</svg>
