<?xml version="1.0" encoding="UTF-8"?>
<svg version="1.1" xmlns="http://www.w3.org/2000/svg" width="357" height="271">
<path d="M0 0 C11.30926817 10.80808673 18.60590647 24.70308382 22.65234375 39.6875 C22.95712646 40.80112915 22.95712646 40.80112915 23.26806641 41.93725586 C26.01132598 52.90198123 25.94945531 64.26232139 25.90234375 75.5 C25.89750977 76.73298828 25.89267578 77.96597656 25.88769531 79.23632812 C25.8670332 82.52077778 25.83782981 85.8049377 25.8001709 89.0892334 C25.78483617 90.45681263 25.77094156 91.8244087 25.75842285 93.1920166 C25.720266 97.33798994 25.65924088 101.48259327 25.56781006 105.62774658 C25.52861987 107.56201577 25.50645475 109.49660666 25.48486328 111.43115234 C25.1365874 124.42825381 22.22465112 136.5368822 12.91796875 146.01953125 C-0.10099929 157.25206195 -21.49735608 161.96675471 -38.22265625 161.125 C-44.30703184 159.87991104 -46.67815373 157.90492994 -50.48046875 153.01953125 C-59.61819271 141.03305479 -59.61819271 141.03305479 -72.95898438 135.09619141 C-83.99599105 133.93100722 -95.22762397 134.9021896 -106.22265625 136.125 C-106.51237305 137.03435303 -106.80208984 137.94370605 -107.10058594 138.88061523 C-108.49903663 142.92413379 -110.39288338 146.46268938 -112.47265625 150.1875 C-112.84261719 150.88166016 -113.21257812 151.57582031 -113.59375 152.29101562 C-116.58978989 157.67468457 -119.64214185 161.95776657 -125.67382812 163.92407227 C-132.41525954 165.41146935 -138.26250242 165.00446655 -144.97265625 163.625 C-145.92567627 163.43776367 -146.87869629 163.25052734 -147.8605957 163.05761719 C-163.11160546 159.87555768 -176.57944468 153.91882903 -187.22265625 142.125 C-187.84785156 141.50367188 -188.47304687 140.88234375 -189.1171875 140.2421875 C-197.61108739 131.44887369 -201.4405721 121.22288885 -201.27612305 109.03466797 C-201.26248215 107.85258759 -201.24884125 106.6705072 -201.23478699 105.4526062 C-201.21402603 104.18691803 -201.19326508 102.92122986 -201.171875 101.6171875 C-201.15300735 100.30017853 -201.13413971 98.98316956 -201.11470032 97.62625122 C-201.07382316 94.84060412 -201.0286393 92.0550656 -200.98071289 89.26953125 C-200.92043901 85.73309291 -200.87332725 82.19662062 -200.82988262 78.65994072 C-200.79416664 75.91084539 -200.74997884 73.16193124 -200.70353127 70.4129982 C-200.67277012 68.48576806 -200.64994857 66.55841631 -200.62736511 64.631073 C-200.24073303 44.52738469 -195.13525728 26.81349835 -182.22265625 11.125 C-181.62710938 10.38378906 -181.0315625 9.64257812 -180.41796875 8.87890625 C-170.09373698 -3.41480749 -155.14257396 -11.6433284 -139.22265625 -13.875 C-135.65379275 -14.11887257 -132.08248552 -14.24707417 -128.5078125 -14.375 C-126.9376664 -14.4359082 -126.9376664 -14.4359082 -125.33580017 -14.49804688 C-121.98571124 -14.62728419 -118.63545442 -14.75131749 -115.28515625 -14.875 C-112.00960285 -14.99927442 -108.73409251 -15.12463652 -105.45858765 -15.25018311 C-103.27910763 -15.33354596 -101.09960296 -15.41626662 -98.92007446 -15.49835205 C-92.58717619 -15.73844229 -86.25589098 -16.00224299 -79.9249115 -16.28839111 C-22.38828489 -18.88642662 -22.38828489 -18.88642662 0 0 Z M-102.20483398 11.3984375 C-108.31682018 11.83659003 -114.40862661 12.18936193 -120.53515625 12.3359375 C-121.70401367 12.36558594 -122.87287109 12.39523438 -124.07714844 12.42578125 C-126.25979348 12.47348934 -128.44285206 12.50600926 -130.62597656 12.51953125 C-142.28547205 12.77871585 -150.90661551 17.01278379 -159.22265625 25.125 C-170.74002772 38.40969227 -173.42090836 52.37030269 -173.8125 69.5078125 C-173.84372452 70.76206024 -173.87494904 72.01630798 -173.90711975 73.30856323 C-173.96825952 75.94566855 -174.0242811 78.58289701 -174.07543945 81.22021484 C-174.14151005 84.58084296 -174.23989349 87.93971174 -174.34578609 91.2992878 C-174.4407477 94.53498469 -174.499113 97.77136694 -174.5625 101.0078125 C-174.6039061 102.20383087 -174.64531219 103.39984924 -174.68797302 104.6321106 C-174.77778701 111.9001995 -173.90955009 116.48427936 -169.22265625 122.125 C-168.32353516 123.27355469 -168.32353516 123.27355469 -167.40625 124.4453125 C-159.19927134 132.92769313 -150.40647421 136.70303458 -138.64453125 137.1171875 C-137.44570312 137.12105469 -137.44570312 137.12105469 -136.22265625 137.125 C-135.63097656 135.95582031 -135.03929687 134.78664063 -134.4296875 133.58203125 C-133.63200929 132.03359707 -132.83380424 130.48543421 -132.03515625 128.9375 C-131.45411133 127.78411133 -131.45411133 127.78411133 -130.86132812 126.60742188 C-128.49073877 122.042568 -126.12022107 118.58803901 -122.22265625 115.125 C-121.62453125 114.568125 -121.02640625 114.01125 -120.41015625 113.4375 C-114.9018649 110.13252519 -108.19426732 109.76143558 -101.91015625 109.5 C-100.720271 109.44743042 -100.720271 109.44743042 -99.50634766 109.39379883 C-96.74541901 109.28575794 -93.98461018 109.20251422 -91.22265625 109.125 C-90.11067871 109.09100098 -88.99870117 109.05700195 -87.85302734 109.02197266 C-84.26789006 108.92499723 -80.6837192 108.86372599 -77.09765625 108.8125 C-75.96030029 108.78269043 -74.82294434 108.75288086 -73.65112305 108.72216797 C-63.63649674 108.6527604 -56.90258808 111.11040217 -49.51953125 117.84375 C-47.66695769 119.68372102 -45.88578128 121.55334082 -44.11328125 123.46875 C-43.55479492 124.05922119 -42.99630859 124.64969238 -42.42089844 125.25805664 C-41.30856445 126.43995148 -40.21447202 127.63934717 -39.14160156 128.85717773 C-36.0945558 132.0879341 -34.83935816 133.0532339 -30.26171875 133.5859375 C-26.48977393 133.27672469 -22.79442472 132.61884212 -19.09765625 131.8125 C-17.94007813 131.56886719 -16.7825 131.32523437 -15.58984375 131.07421875 C-11.51994945 129.92690516 -7.68747693 128.75436218 -4.796875 125.5390625 C0.6324203 114.5848015 -1.00797179 100.14927666 -0.98242188 88.1887207 C-0.97273429 85.45948583 -0.94161231 82.73101199 -0.91015625 80.00195312 C-0.78832733 59.66306851 -2.6012838 37.199044 -16.72265625 21.3125 C-17.54765625 20.590625 -18.37265625 19.86875 -19.22265625 19.125 C-20.08890625 18.279375 -20.95515625 17.43375 -21.84765625 16.5625 C-40.69320903 1.1654891 -79.6968908 9.74939607 -102.20483398 11.3984375 Z " fill="#1D304F" transform="translate(263.22265625,67.875)"/>
<path d="M0 0 C3.18950003 2.62664708 4.81739865 4.82719596 6.125 8.75 C6.1935495 10.64470816 6.20980372 12.5416834 6.1875 14.4375 C6.17847656 15.43136719 6.16945312 16.42523438 6.16015625 17.44921875 C6.14855469 18.20847656 6.13695312 18.96773437 6.125 19.75 C7.05119141 19.69779297 7.05119141 19.69779297 7.99609375 19.64453125 C15.38308915 19.40841724 21.72640241 20.09743603 27.6875 24.75 C29.91198504 29.39240356 29.96818469 33.70568456 29.125 38.75 C27.36992804 42.67949739 24.83487743 44.44966724 20.875 46.125 C16.562254 46.843791 12.48268069 46.92786452 8.125 46.75 C8.28484375 47.34039062 8.4446875 47.93078125 8.609375 48.5390625 C9.63068665 52.91832305 9.46827391 56.65581442 8.125 60.9375 C5.39993559 64.76962182 2.63926369 66.48256375 -1.875 67.75 C-6.84393687 68.16338909 -9.9079869 67.53184038 -13.8125 64.375 C-16.95411518 60.37658068 -18.14421219 58.10282736 -18.5 53.0625 C-18.57476562 52.06863281 -18.64953125 51.07476562 -18.7265625 50.05078125 C-18.80003906 48.91189453 -18.80003906 48.91189453 -18.875 47.75 C-19.49246094 47.79640625 -20.10992187 47.8428125 -20.74609375 47.890625 C-27.20619262 48.16594124 -32.43995124 47.45363027 -37.875 43.75 C-40.98091235 39.51466498 -41.43991769 35.92841217 -40.875 30.75 C-38.96479065 26.1867221 -36.11518759 24.17296434 -31.875 21.75 C-28.30241497 20.36706386 -24.66720643 20.67707295 -20.875 20.75 C-20.92720703 19.698125 -20.92720703 19.698125 -20.98046875 18.625 C-21.16262504 12.24085579 -20.91884278 7.43183985 -17.875 1.75 C-12.63240608 -2.24435727 -5.963588 -2.59286435 0 0 Z " fill="#1D3050" transform="translate(143.875,95.25)"/>
<path d="M0 0 C5.39175394 2.9989019 8.67090192 6.78565673 10.375 12.75 C11.21864338 17.56850162 10.4754332 21.23055959 7.875 25.375 C4.14372847 29.4611479 0.6809439 31.25460374 -4.875 31.625 C-9.9667279 31.5224194 -14.11664762 30.32907258 -17.859375 26.6875 C-21.9871055 21.97009371 -23.48738042 19.06570288 -23.40625 12.7578125 C-22.81122128 7.71659694 -20.26049207 4.42740728 -16.5625 1 C-11.23063271 -2.55457819 -5.76296192 -2.62547037 0 0 Z " fill="#1D3050" transform="translate(212.125,93.625)"/>
<path d="M0 0 C4.29945578 3.13886649 6.03631884 6.02401554 7.375 11.1875 C7.5505681 16.27897497 6.32875729 19.61304866 3.0546875 23.55078125 C-0.71289804 27.2219867 -3.97515039 28.6812886 -9.23046875 28.9140625 C-14.42734582 28.68150002 -18.24264572 27.85118397 -22.375 24.4375 C-26.74827617 19.03521767 -27.200627 14.63552911 -26.5 7.8125 C-24.97140906 3.60887492 -23.40053244 1.0582611 -19.5 -1.1875 C-13.04518888 -3.16174809 -5.9189713 -3.49657749 0 0 Z " fill="#1D304F" transform="translate(240.5,134.1875)"/>
<path d="M0 0 C0.66 0.33 1.32 0.66 2 1 C1.01 2.485 1.01 2.485 0 4 C-0.60103341 6.21389829 -1.13675809 8.44602579 -1.625 10.6875 C-1.88539062 11.86699219 -2.14578125 13.04648438 -2.4140625 14.26171875 C-2.60742188 15.16535156 -2.80078125 16.06898437 -3 17 C-3.66 17 -4.32 17 -5 17 C-4.938125 18.1446875 -4.938125 18.1446875 -4.875 19.3125 C-5 22 -5 22 -7 25 C-9.11863448 38.15497772 -8.15200638 52.10816694 -8.13037109 65.37475586 C-8.12675852 68.02326725 -8.12585864 70.67157856 -8.13037109 73.32006836 C-8.13651579 77.16782682 -8.13581327 81.01552018 -8.1328125 84.86328125 C-8.13483673 86.05270828 -8.13686096 87.24213531 -8.13894653 88.46760559 C-8.13579437 89.56022202 -8.13264221 90.65283844 -8.12939453 91.77856445 C-8.12859894 92.74147903 -8.12780334 93.70439362 -8.12698364 94.69648743 C-8.15144123 97.02820428 -8.15144123 97.02820428 -7 99 C-6.95977609 101.3329866 -6.95679753 103.66706666 -7 106 C-6.01 106 -5.02 106 -4 106 C-3.29773859 107.24176695 -2.61370891 108.49385599 -1.9375 109.75 C-1.36322266 110.79414063 -1.36322266 110.79414063 -0.77734375 111.859375 C0.1312406 114.36140628 -0.11663163 115.5332355 -1 118 C-8.54666207 108.9943166 -12.21294484 99.72946021 -12.0534668 87.90966797 C-12.0398259 86.72758759 -12.026185 85.5455072 -12.01213074 84.3276062 C-11.99136978 83.06191803 -11.97060883 81.79622986 -11.94921875 80.4921875 C-11.9303511 79.17517853 -11.91148346 77.85816956 -11.89204407 76.50125122 C-11.85116691 73.71560412 -11.80598305 70.9300656 -11.75805664 68.14453125 C-11.69778276 64.60809291 -11.650671 61.07162062 -11.60722637 57.53494072 C-11.57151039 54.78584539 -11.52732259 52.03693124 -11.48087502 49.2879982 C-11.45011387 47.36076806 -11.42729232 45.43341631 -11.40470886 43.506073 C-11.10282577 27.80907333 -8.31262494 13.49098146 0 0 Z " fill="#514852" transform="translate(74,89)"/>
<path d="M0 0 C4.64957102 3.18341709 6.73943328 6.49622039 9.125 11.4375 C9.47191895 12.14181152 9.81883789 12.84612305 10.17626953 13.57177734 C12.72802985 18.9555912 14.34658131 24.25963103 15.4296875 30.1328125 C15.93159893 33.0318717 15.93159893 33.0318717 17.02046204 35.81852722 C18.00124164 39.00403276 18.24778234 41.45367523 18.24291992 44.77075195 C18.24599655 45.8824324 18.24907318 46.99411285 18.25224304 48.13948059 C18.24505753 49.32708481 18.23787201 50.51468903 18.23046875 51.73828125 C18.22978142 53.59129097 18.22978142 53.59129097 18.2290802 55.48173523 C18.22529316 58.75804579 18.21232208 62.03416034 18.19561768 65.3104248 C18.18219714 68.62035321 18.18534191 71.93028314 18.18554688 75.24023438 C18.18062877 77.781252 18.17479918 80.32226805 18.16796875 82.86328125 C18.16685593 84.04481277 18.1657431 85.2263443 18.16459656 86.44367981 C18.07222135 102.67685373 18.07222135 102.67685373 15.875 107.4375 C12.78724007 110.01063327 9.00042956 111 5 111 C5 110.34 5 109.68 5 109 C5.94875 108.773125 6.8975 108.54625 7.875 108.3125 C11.07780238 107.32745693 11.07780238 107.32745693 12.25 104.9375 C12.62125 103.4834375 12.62125 103.4834375 13 102 C13.16505539 101.38285629 13.33011078 100.76571259 13.50016785 100.12986755 C15.00842906 94.04960915 15.30665776 88.28234123 15.30078125 82.03515625 C15.30506638 81.0029747 15.3093515 79.97079315 15.31376648 78.90733337 C15.3194831 76.72981495 15.32002984 74.55227743 15.31567383 72.37475586 C15.31253881 69.10300582 15.33592071 65.83218383 15.36132812 62.56054688 C15.42046039 42.93478012 14.27595354 23.11288115 3.3671875 6.15625 C2.09705449 4.15306879 1.02080113 2.13882143 0 0 Z " fill="#473B49" transform="translate(246,88)"/>
<path d="M0 0 C0.66 0.33 1.32 0.66 2 1 C1.86124451 1.56579773 1.72248901 2.13159546 1.57952881 2.71453857 C-0.05301379 9.98070466 -0.37385566 17.02385294 -0.484375 24.453125 C-0.52053925 26.34161163 -0.52053925 26.34161163 -0.55743408 28.26824951 C-0.60548908 30.9139009 -0.64984077 33.55929768 -0.68798828 36.20507812 C-0.73732778 39.58325056 -0.8045091 42.96079943 -0.87673569 46.33855057 C-0.94349079 49.58490874 -0.99441191 52.8315092 -1.046875 56.078125 C-1.07279724 57.28446594 -1.09871948 58.49080688 -1.12542725 59.73370361 C-1.13914368 60.86217712 -1.15286011 61.99065063 -1.16699219 63.15332031 C-1.19125275 64.63363739 -1.19125275 64.63363739 -1.21600342 66.14385986 C-0.97335014 69.35238204 -0.12780661 71.99736184 1 75 C-1.65054669 72.46469447 -2.94968758 71.11716416 -3.12025452 67.32980347 C-3.11803391 66.19729156 -3.11581329 65.06477966 -3.11352539 63.89794922 C-3.11344986 62.61677216 -3.11337433 61.33559509 -3.11329651 60.01559448 C-3.10818948 58.61195843 -3.10297348 57.20832277 -3.09765625 55.8046875 C-3.09579146 54.37265065 -3.09436784 52.94061316 -3.09336853 51.50857544 C-3.08954819 47.73726646 -3.07972202 43.96599593 -3.06866455 40.19470215 C-3.05844005 36.34725464 -3.05386868 32.49980093 -3.04882812 28.65234375 C-3.03809933 21.10154497 -3.02102869 13.55077787 -3 6 C-2.34 6 -1.68 6 -1 6 C-0.67 4.02 -0.34 2.04 0 0 Z " fill="#1A4F84" transform="translate(91,113)"/>
<path d="M0 0 C0.66 0 1.32 0 2 0 C2.66 1.65 3.32 3.3 4 5 C4.99 5 5.98 5 7 5 C7 5.66 7 6.32 7 7 C8.65 7.33 10.3 7.66 12 8 C12.33 7.01 12.66 6.02 13 5 C13.66 5.33 14.32 5.66 15 6 C14.67 6.99 14.34 7.98 14 9 C13.95834635 10.66614608 13.95834635 12.33385392 14 14 C14 14.99 14 15.98 14 17 C13.34 17 12.68 17 12 17 C12 16.01 12 15.02 12 14 C11.34 14 10.68 14 10 14 C11.30155006 18.07964281 11.30155006 18.07964281 13 22 C12.83219837 24.69565202 12.38844355 27.32405554 12 30 C11.67 30 11.34 30 11 30 C10.79246094 29.09121094 10.58492188 28.18242188 10.37109375 27.24609375 C7.987684 17.52297865 4.5071333 8.9256432 0 0 Z " fill="#232E47" transform="translate(250,91)"/>
<path d="M0 0 C0.33 0 0.66 0 1 0 C4.52163043 15.31547237 2.98110799 32.05898447 2.5625 47.625 C2.50911149 49.80727576 2.45637318 51.98956753 2.40429688 54.171875 C2.27700334 59.44812415 2.1417737 64.72412107 2 70 C1.67 70 1.34 70 1 70 C0.85437071 63.40623581 0.71241277 56.81239917 0.57275391 50.21850586 C0.52505404 47.98541565 0.47657891 45.75234184 0.42724609 43.51928711 C0.10735979 29.01015853 -0.06920419 14.51269568 0 0 Z " fill="#102E5F" transform="translate(285,116)"/>
<path d="M0 0 C0 0.99 0 1.98 0 3 C-1.29735507 4.04625409 -2.63266972 5.04701223 -4 6 C-4.33 6.66 -4.66 7.32 -5 8 C-5.99 8.66 -6.98 9.32 -8 10 C-14.76946528 15.16617087 -19.95670192 21.19154759 -25 28 C-25.99 27.67 -26.98 27.34 -28 27 C-20.53182544 17.12800676 -13.5008677 8.73323843 -3 2 C-2.01 1.34 -1.02 0.68 0 0 Z " fill="#333142" transform="translate(102,61)"/>
<path d="M0 0 C0.66 0 1.32 0 2 0 C2.042721 1.66611905 2.04063832 3.33382885 2 5 C1.67 5.33 1.34 5.66 1 6 C0.76501076 7.61881478 0.58623529 9.24599446 0.4375 10.875 C0.35371094 11.75929688 0.26992187 12.64359375 0.18359375 13.5546875 C-0.03743458 16.08989753 -0.03743458 16.08989753 0 19 C-2.47330257 21.47330257 -3.46232023 21.29746708 -6.875 21.5 C-11.64352884 21.78468829 -14.57811871 22.57811871 -18 26 C-18 24.68 -18 23.36 -18 22 C-12.63999211 19.74315457 -8.8022175 18.63736141 -3 19 C-3.03480469 18.29875 -3.06960937 17.5975 -3.10546875 16.875 C-3.28894664 10.4445369 -2.6553877 5.86398118 0 0 Z " fill="#232C41" transform="translate(126,97)"/>
<path d="M0 0 C0.66 0.33 1.32 0.66 2 1 C1.01 2.485 1.01 2.485 0 4 C-0.60103341 6.21389829 -1.13675809 8.44602579 -1.625 10.6875 C-1.88539062 11.86699219 -2.14578125 13.04648438 -2.4140625 14.26171875 C-2.60742188 15.16535156 -2.80078125 16.06898437 -3 17 C-3.66 17 -4.32 17 -5 17 C-4.938125 18.1446875 -4.938125 18.1446875 -4.875 19.3125 C-5 22 -5 22 -7 25 C-7.70812814 27.32108669 -8.38024152 29.65377147 -9 32 C-9.33 32 -9.66 32 -10 32 C-11.13543792 20.87270839 -5.87024675 9.21753638 0 0 Z " fill="#433B4B" transform="translate(74,89)"/>
<path d="M0 0 C0.33 0.66 0.66 1.32 1 2 C0.67 2.99 0.34 3.98 0 5 C0.33 5.66 0.66 6.32 1 7 C0.401875 7.433125 -0.19625 7.86625 -0.8125 8.3125 C-3.97653046 10.7533235 -5.71798938 12.15396813 -7 16 C-7.66 16.33 -8.32 16.66 -9 17 C-9.12375 17.639375 -9.2475 18.27875 -9.375 18.9375 C-10 21 -10 21 -12.0625 22.25 C-12.701875 22.4975 -13.34125 22.745 -14 23 C-13.41128874 18.43748773 -11.51530009 14.86429776 -9.25 10.9375 C-8.91484375 10.32583984 -8.5796875 9.71417969 -8.234375 9.08398438 C-6.00204789 5.17318404 -3.68123581 2.5807265 0 0 Z " fill="#303045" transform="translate(142,181)"/>
<path d="M0 0 C0.66 0.33 1.32 0.66 2 1 C1.98839844 1.59167969 1.97679688 2.18335937 1.96484375 2.79296875 C1.75063423 8.9991277 1.75063423 8.9991277 3 15 C4.96758273 16.36020151 4.96758273 16.36020151 7 17 C7 17.66 7 18.32 7 19 C3.19985035 18.45712148 1.46103687 16.88535357 -1 14 C-2.41933513 9.74199462 -2.72651677 5.77088462 -1 1.5625 C-0.67 1.046875 -0.34 0.53125 0 0 Z " fill="#262D41" transform="translate(105,122)"/>
<path d="M0 0 C0 1.65 0 3.3 0 5 C-1.32 5 -2.64 5 -4 5 C-5.50156874 8.00313748 -5.09281204 10.79067522 -5.0625 14.125 C-5.05347656 15.40632813 -5.04445312 16.68765625 -5.03515625 18.0078125 C-5.02355469 18.99523437 -5.01195312 19.98265625 -5 21 C-5.99 21 -6.98 21 -8 21 C-9.73895348 17.52209305 -9.4605414 13.80257834 -9 10 C-7.46520051 6.02623696 -4.74753638 0 0 0 Z " fill="#4F434E" transform="translate(198,94)"/>
<path d="M0 0 C0.66 0.33 1.32 0.66 2 1 C1.938125 2.175625 1.87625 3.35125 1.8125 4.5625 C1.82459601 11.42093553 5.16183751 16.57363234 9 22 C5.18522884 21.45503269 3.47661852 19.88938827 1 17 C-0.89513591 13.87938752 -1.24775351 11.56914359 -1.1875 7.9375 C-1.18105469 7.08027344 -1.17460937 6.22304687 -1.16796875 5.33984375 C-1 3 -1 3 0 0 Z " fill="#53444E" transform="translate(215,139)"/>
<path d="M0 0 C0.66 0.33 1.32 0.66 2 1 C1.86722656 1.53625 1.73445313 2.0725 1.59765625 2.625 C-0.22169202 10.69918795 -0.61150489 18.75981434 -1 27 C-1.66 27 -2.32 27 -3 27 C-3 20.07 -3 13.14 -3 6 C-2.34 6 -1.68 6 -1 6 C-0.67 4.02 -0.34 2.04 0 0 Z " fill="#1C4170" transform="translate(91,113)"/>
<path d="M0 0 C1.21171875 0.00322266 2.4234375 0.00644531 3.671875 0.00976562 C4.94289062 0.01814453 6.21390625 0.02652344 7.5234375 0.03515625 C8.8021875 0.03966797 10.0809375 0.04417969 11.3984375 0.04882812 C14.56515042 0.06064422 17.73177106 0.0771181 20.8984375 0.09765625 C20.8984375 0.75765625 20.8984375 1.41765625 20.8984375 2.09765625 C20.23457031 2.08605469 19.57070312 2.07445312 18.88671875 2.0625 C18.00371094 2.05347656 17.12070313 2.04445312 16.2109375 2.03515625 C15.34082031 2.02355469 14.47070312 2.01195312 13.57421875 2 C10.90144882 2.09754635 8.5152214 2.57024244 5.8984375 3.09765625 C4.02578904 3.2104348 2.14943439 3.27223616 0.2734375 3.28515625 C-1.13808594 3.30642578 -1.13808594 3.30642578 -2.578125 3.328125 C-5.1015625 3.09765625 -5.1015625 3.09765625 -8.1015625 1.09765625 C-5.33538687 -0.28543156 -3.0913825 -0.01444571 0 0 Z " fill="#1C2741" transform="translate(203.1015625,50.90234375)"/>
<path d="M0 0 C2 1 2 1 2.6328125 2.84765625 C2.79523438 3.57855469 2.95765625 4.30945313 3.125 5.0625 C3.29257813 5.79597656 3.46015625 6.52945313 3.6328125 7.28515625 C3.75398438 7.85105469 3.87515625 8.41695312 4 9 C4.99 9 5.98 9 7 9 C7.70226141 10.24176695 8.38629109 11.49385599 9.0625 12.75 C9.44535156 13.44609375 9.82820313 14.1421875 10.22265625 14.859375 C11.1312406 17.36140628 10.88336837 18.5332355 10 21 C5.00968493 15.04489069 0 8.05580118 0 0 Z " fill="#564751" transform="translate(63,186)"/>
<path d="M0 0 C1.00058075 3.00174224 1.31241431 4.87585686 1 8 C0.02811102 9.02734211 -0.97792804 10.02257026 -2 11 C-3.7621527 13.25686378 -5.47299135 15.54763939 -7.18359375 17.84375 C-8.97786832 19.97372755 -10.65920979 21.50035617 -13 23 C-13.66 23 -14.32 23 -15 23 C-15 22.34 -15 21.68 -15 21 C-13.35 20.34 -11.7 19.68 -10 19 C-10 18.34 -10 17.68 -10 17 C-9.34 17 -8.68 17 -8 17 C-7.71125 16.21625 -7.4225 15.4325 -7.125 14.625 C-6 12 -6 12 -4 10 C-3.24223736 8.31301018 -2.53888218 6.60109367 -1.875 4.875 C-1.52179688 3.96492187 -1.16859375 3.05484375 -0.8046875 2.1171875 C-0.53914063 1.41851562 -0.27359375 0.71984375 0 0 Z " fill="#0B2954" transform="translate(284,193)"/>
<path d="M0 0 C-4.48410976 4.48410976 -8.99639556 5.05255617 -15 6 C-16.6679898 6.326648 -18.33507064 6.65809486 -20 7 C-20 6.34 -20 5.68 -20 5 C-17.79567015 4.15450362 -15.58751467 3.32357186 -13.375 2.5 C-11.53035156 1.80390625 -11.53035156 1.80390625 -9.6484375 1.09375 C-6.18957134 0.05683081 -3.57814964 -0.22019382 0 0 Z " fill="#1E2A40" transform="translate(124,55)"/>
<path d="M0 0 C0.99 0 1.98 0 3 0 C2.34628933 3.48645691 0.93113107 6.00288024 -0.9375 9 C-2.76762123 11.9497777 -4.4993844 14.86828048 -6 18 C-7.33519008 15.32961983 -6.80789616 13.90782241 -6.25 11 C-6.09015625 10.113125 -5.9303125 9.22625 -5.765625 8.3125 C-5 6 -5 6 -2 4 C-0.80767387 1.94996045 -0.80767387 1.94996045 0 0 Z " fill="#1B3B69" transform="translate(99,94)"/>
<path d="M0 0 C0.66 0 1.32 0 2 0 C2.13277344 0.80824219 2.26554688 1.61648437 2.40234375 2.44921875 C2.57894531 3.51785156 2.75554687 4.58648437 2.9375 5.6875 C3.11152344 6.74324219 3.28554687 7.79898438 3.46484375 8.88671875 C3.93167121 11.60249604 4.44422616 14.30124235 5 17 C4.34 17 3.68 17 3 17 C-0.36711966 12.82477162 -0.96084796 8.2267969 -1 3 C-0.67 2.01 -0.34 1.02 0 0 Z " fill="#383442" transform="translate(126,142)"/>
<path d="M0 0 C0.66 0.33 1.32 0.66 2 1 C2 1.66 2 2.32 2 3 C10.25 3 18.5 3 27 3 C27 3.33 27 3.66 27 4 C17.1 4.33 7.2 4.66 -3 5 C-2.01 4.01 -1.02 3.02 0 2 C0 1.34 0 0.68 0 0 Z " fill="#1C2A43" transform="translate(174,74)"/>
<path d="M0 0 C0.66 0 1.32 0 2 0 C2.2232717 3.90725474 1.56414468 6.43722601 0 10 C-0.67795528 11.99620166 -1.34733531 13.99538701 -2 16 C-2.33 16 -2.66 16 -3 16 C-3.33266291 9.79029227 -2.45029331 5.71735105 0 0 Z " fill="#343342" transform="translate(126,97)"/>
<path d="M0 0 C1.85625 0.061875 1.85625 0.061875 3.75 0.125 C4.08 0.785 4.41 1.445 4.75 2.125 C6.63263881 3.02843684 6.63263881 3.02843684 8.8125 3.75 C9.54597656 4.01039062 10.27945313 4.27078125 11.03515625 4.5390625 C11.88400391 4.82910156 11.88400391 4.82910156 12.75 5.125 C12.75 5.785 12.75 6.445 12.75 7.125 C11.5125 6.67125 10.275 6.2175 9 5.75 C3.36120713 3.8524158 -2.37525178 2.96992995 -8.25 2.125 C-5.3504339 0.46623921 -3.33364791 -0.1111216 0 0 Z " fill="#1F283E" transform="translate(227.25,75.875)"/>
<path d="M0 0 C0.66 0.33 1.32 0.66 2 1 C3.46086114 6.6186967 2.84702078 9.97026329 0 15 C-2.6875 17.4375 -2.6875 17.4375 -5 19 C-4.125 14.25 -4.125 14.25 -3 12 C-2.01 11.67 -1.02 11.34 0 11 C0 7.37 0 3.74 0 0 Z " fill="#1F3B6F" transform="translate(245,141)"/>
<path d="M0 0 C3.38112083 3.08711033 3.95036038 5.23058589 4.25 9.875 C4.22208134 13.65797805 3.30244309 15.93007588 1 19 C0 16 0 16 1 13 C1.09247381 11.52313889 1.12999071 10.04224499 1.125 8.5625 C1.12886719 7.41974609 1.12886719 7.41974609 1.1328125 6.25390625 C1.00276015 4.04684141 0.60856199 2.12030724 0 0 Z " fill="#0E2F5C" transform="translate(217,100)"/>
<path d="M0 0 C0 0.99 0 1.98 0 3 C-1.29735507 4.04625409 -2.63266972 5.04701223 -4 6 C-4.33 6.66 -4.66 7.32 -5 8 C-6.33333333 8.33333333 -7.66666667 8.66666667 -9 9 C-9.33 9.66 -9.66 10.32 -10 11 C-11.32 10.67 -12.64 10.34 -14 10 C-12.22970554 8.70759488 -10.45874502 7.41610207 -8.6875 6.125 C-7.70136719 5.40570313 -6.71523437 4.68640625 -5.69921875 3.9453125 C-3.82476885 2.5944065 -1.92247007 1.28164671 0 0 Z " fill="#242A3A" transform="translate(102,61)"/>
<path d="M0 0 C3.57814867 0.59635811 5.54422861 1.999934 8.25 4.375 C8.95640625 4.98085937 9.6628125 5.58671875 10.390625 6.2109375 C12 8 12 8 12 11 C10 10 8 9 6 8 C5.896875 7.401875 5.79375 6.80375 5.6875 6.1875 C4.69606181 3.03292395 2.62311727 1.88326368 0 0 Z " fill="#1E3559" transform="translate(204,179)"/>
<path d="M0 0 C0.66 0 1.32 0 2 0 C2.185625 1.2065625 2.185625 1.2065625 2.375 2.4375 C2.58125 3.283125 2.7875 4.12875 3 5 C3.66 5.33 4.32 5.66 5 6 C7.61481327 10.54151779 6.84064883 14.04017192 6 19 C5.67 19 5.34 19 5 19 C4.35377959 16.58343624 3.70800996 14.16675354 3.0625 11.75 C2.88009766 11.06808594 2.69769531 10.38617188 2.50976562 9.68359375 C1.64946879 6.46139106 0.79316866 3.23946777 0 0 Z " fill="#362F41" transform="translate(256,102)"/>
<path d="M0 0 C0.33 0 0.66 0 1 0 C0.52013969 5.56890517 -0.29915181 10.67067568 -2 16 C-2.33 16 -2.66 16 -3 16 C-3.33266291 9.79029227 -2.45029331 5.71735105 0 0 Z " fill="#53404B" transform="translate(67,105)"/>
<path d="M0 0 C-2.56692705 2.46424997 -3.74802788 2.9906677 -7.375 3.125 C-8.57125 3.08375 -9.7675 3.0425 -11 3 C-12.60875 3.309375 -12.60875 3.309375 -14.25 3.625 C-17 4 -17 4 -20 2 C-17.04287371 1.47130166 -14.0846444 0.9517326 -11.125 0.4375 C-10.28324219 0.28603516 -9.44148437 0.13457031 -8.57421875 -0.02148438 C-7.76855469 -0.16005859 -6.96289062 -0.29863281 -6.1328125 -0.44140625 C-5.38918457 -0.57232666 -4.64555664 -0.70324707 -3.87939453 -0.83813477 C-2 -1 -2 -1 0 0 Z " fill="#1B273A" transform="translate(250,199)"/>
<path d="M0 0 C3 1 3 1 4 3 C4.12005453 4.49649362 4.17531451 5.99874793 4.1875 7.5 C4.20167969 8.2940625 4.21585938 9.088125 4.23046875 9.90625 C4 12 4 12 2 14 C2 12.68 2 11.36 2 10 C1.34416793 7.66359824 0.67784992 5.33010909 0 3 C0 2.01 0 1.02 0 0 Z " fill="#0E2954" transform="translate(242,140)"/>
<path d="M0 0 C2.44336977 1.75617202 3.83210694 3.12017578 4.40625 6.12890625 C4.56688537 10.19164241 4.55839295 12.28455904 2 15.5625 C1.34 16.036875 0.68 16.51125 0 17 C0.350625 16.154375 0.70125 15.30875 1.0625 14.4375 C2.44089712 9.38337722 1.39005064 4.96446657 0 0 Z " fill="#0B2855" transform="translate(168,120)"/>
<path d="M0 0 C0.99 0.495 0.99 0.495 2 1 C1.01 1.495 1.01 1.495 0 2 C0 1.34 0 0.68 0 0 Z M-2.375 1.875 C-1.59125 1.91625 -0.8075 1.9575 0 2 C-2.38957269 5.24299151 -4.2047869 7.50902342 -8 9 C-6.90909091 2.09090909 -6.90909091 2.09090909 -2.375 1.875 Z " fill="#282E45" transform="translate(92,70)"/>
<path d="M0 0 C1.03115279 3.26913624 0.9638984 5.86041348 0.5625 9.25 C0.46066406 10.14203125 0.35882813 11.0340625 0.25390625 11.953125 C0.12822266 12.96632812 0.12822266 12.96632812 0 14 C-2.46751239 10.29873141 -2.30721156 8.37776468 -2 4 C-1 1.5625 -1 1.5625 0 0 Z " fill="#373746" transform="translate(105,122)"/>
<path d="M0 0 C1.1549921 0.73581742 2.29874185 1.48930039 3.4375 2.25 C4.07558594 2.66765625 4.71367188 3.0853125 5.37109375 3.515625 C7.29902057 5.27248877 7.61479436 6.46089803 8 9 C6.70684939 8.04367001 5.41553147 7.08486149 4.125 6.125 C3.40570313 5.59132812 2.68640625 5.05765625 1.9453125 4.5078125 C0 3 0 3 -2 1 C-1.34 0.67 -0.68 0.34 0 0 Z " fill="#1A2239" transform="translate(80,211)"/>
<path d="M0 0 C2 3 2 3 1.75 6.625 C1.5025 7.73875 1.255 8.8525 1 10 C0.01 10.495 0.01 10.495 -1 11 C-1 8.36 -1 5.72 -1 3 C-1.66 2.67 -2.32 2.34 -3 2 C-2.01 1.34 -1.02 0.68 0 0 Z " fill="#1C3661" transform="translate(285,188)"/>
<path d="M0 0 C0.66 0 1.32 0 2 0 C2 1.65 2 3.3 2 5 C0.68 5 -0.64 5 -2 5 C-2.99 6.485 -2.99 6.485 -4 8 C-4.66 7.67 -5.32 7.34 -6 7 C-5.04882866 5.8274869 -4.08882991 4.66212985 -3.125 3.5 C-2.59132812 2.8503125 -2.05765625 2.200625 -1.5078125 1.53125 C-0.76144531 0.77328125 -0.76144531 0.77328125 0 0 Z " fill="#373C4B" transform="translate(196,94)"/>
<path d="M0 0 C0.33 0.66 0.66 1.32 1 2 C-0.98 4.31 -2.96 6.62 -5 9 C-5.66 8.67 -6.32 8.34 -7 8 C-6.34 6.35 -5.68 4.7 -5 3 C-4.01 3 -3.02 3 -2 3 C-1.34 2.01 -0.68 1.02 0 0 Z " fill="#1E375D" transform="translate(147,221)"/>
<path d="M0 0 C1 3 1 3 0 6 C-0.99 6.495 -0.99 6.495 -2 7 C-2.66 7.99 -3.32 8.98 -4 10 C-4.25 7.25 -4.25 7.25 -4 4 C-2 1.625 -2 1.625 0 0 Z " fill="#2B2C41" transform="translate(220,134)"/>
<path d="M0 0 C0.66 0 1.32 0 2 0 C1.67 1.32 1.34 2.64 1 4 C0.34 4 -0.32 4 -1 4 C-1 7.96 -1 11.92 -1 16 C-1.33 16 -1.66 16 -2 16 C-2.05402274 13.89611431 -2.09280256 11.79183286 -2.125 9.6875 C-2.14820313 8.51574219 -2.17140625 7.34398438 -2.1953125 6.13671875 C-2 3 -2 3 0 0 Z " fill="#262D45" transform="translate(194,98)"/>
<path d="M0 0 C2.32496727 2.11360661 3.99659644 3.98978932 5 7 C4.125 9.25 4.125 9.25 3 11 C0.43383368 7.15075052 0.44902324 4.5650696 0 0 Z " fill="#14325B" transform="translate(274,83)"/>
<path d="M0 0 C-0.66 0 -1.32 0 -2 0 C-2 0.66 -2 1.32 -2 2 C-4.31 2.66 -6.62 3.32 -9 4 C-9 3.01 -9 2.02 -9 1 C-5.57367167 -0.61798838 -3.61944899 -1.34053666 0 0 Z " fill="#202C3F" transform="translate(152,179)"/>
<path d="M0 0 C2.375 0.25 2.375 0.25 5 1 C6.25 2.9375 6.25 2.9375 7 5 C7.33 5.66 7.66 6.32 8 7 C5.6875 7.3125 5.6875 7.3125 3 7 C1.18116991 4.6167054 0 3.04181663 0 0 Z " fill="#102A4D" transform="translate(256,65)"/>
<path d="M0 0 C2.62187494 1.04874998 3.79371361 1.64931313 5.25 4.125 C5.4975 4.74375 5.745 5.3625 6 6 C1.25 4.125 1.25 4.125 -1 3 C-0.67 2.01 -0.34 1.02 0 0 Z " fill="#1D2841" transform="translate(90,218)"/>
<path d="M0 0 C2.78388975 1.70625501 3.85384206 2.47626739 4.75 5.6875 C4.8325 6.450625 4.915 7.21375 5 8 C2 7 2 7 0 4 C0 2.68 0 1.36 0 0 Z " fill="#10295B" transform="translate(95,191)"/>
<path d="M0 0 C0 0.33 0 0.66 0 1 C-4.29 0.67 -8.58 0.34 -13 0 C-13 -0.33 -13 -0.66 -13 -1 C-7.96488101 -2.0070238 -4.76052962 -1.97387813 0 0 Z " fill="#192740" transform="translate(129,231)"/>
<path d="M0 0 C0 0.66 0 1.32 0 2 C-6.75 4 -6.75 4 -9 4 C-9 3.34 -9 2.68 -9 2 C-5.86501708 0.14223235 -3.62528568 -0.20140476 0 0 Z " fill="#20263B" transform="translate(260,195)"/>
<path d="M0 0 C0.99 0.33 1.98 0.66 3 1 C0.53846154 4.81538462 0.53846154 4.81538462 -2.1875 5.75 C-2.785625 5.8325 -3.38375 5.915 -4 6 C-2.84826645 3.53199953 -1.95216435 1.95216435 0 0 Z " fill="#132D59" transform="translate(109,84)"/>
<path d="M0 0 C0.33 0 0.66 0 1 0 C1 1.98 1 3.96 1 6 C-0.98 6.99 -0.98 6.99 -3 8 C-2.45276317 4.62537285 -1.9451 2.91765 0 0 Z " fill="#413A4B" transform="translate(131,196)"/>
<path d="M0 0 C0.33 0 0.66 0 1 0 C1.26218749 3.14624993 1.24754367 4.61837017 -0.5 7.3125 C-1.2425 8.1478125 -1.2425 8.1478125 -2 9 C-2.66 8.67 -3.32 8.34 -4 8 C-2.68 5.36 -1.36 2.72 0 0 Z " fill="#0C264B" transform="translate(147,216)"/>
</svg>
