<?xml version="1.0" encoding="UTF-8"?>
<svg version="1.1" xmlns="http://www.w3.org/2000/svg" width="245" height="313">
<path d="M0 0 C6.00052979 3.86950052 11.59034622 8.20091232 17.1640625 12.64892578 C26.78872838 20.29990609 36.78538494 27.52769788 47.11328125 34.19921875 C52.75809356 37.89429087 57.80989019 42.13923254 62.890625 46.55859375 C64.71243034 48.13341608 66.58031598 49.65802614 68.5078125 51.1015625 C70.9737187 53.22299799 72.13872806 54.97550519 73.55078125 57.88671875 C74.16179687 59.10294922 74.16179687 59.10294922 74.78515625 60.34375 C77.14882808 66.69839079 76.94936414 73.38724591 76.94604492 80.07348633 C76.94940353 81.05330978 76.95276215 82.03313324 76.95622253 83.04264832 C76.96568807 86.26802859 76.96767344 89.49335671 76.96875 92.71875 C76.97196564 94.97165447 76.97532994 97.22455873 76.97883606 99.47746277 C76.98481633 104.19567346 76.98667709 108.91386586 76.98608398 113.63208008 C76.98598243 119.66081681 76.99963304 125.68943561 77.01685619 131.71814442 C77.02800594 136.37058546 77.03000228 141.02299825 77.02947426 145.67545128 C77.03064995 147.89726861 77.03504852 150.11908678 77.04280663 152.34089088 C77.05266658 155.4562658 77.04970481 158.5713881 77.04370117 161.68676758 C77.04932068 162.59359283 77.05494019 163.50041809 77.06072998 164.4347229 C77.01102238 174.64853141 75.59454268 183.17159051 68.80078125 191.07421875 C62.45150574 197.1707128 54.48832217 198.23414883 45.97900391 198.91479492 C44.86408129 199.00937579 44.86408129 199.00937579 43.72663498 199.10586739 C41.26510665 199.30830284 38.80285214 199.49616776 36.33984375 199.6796875 C35.47570484 199.74511435 34.61156593 199.81054119 33.721241 199.87795067 C11.92422934 201.48605983 -9.85738051 201.49254022 -31.70184326 201.39678955 C-35.90306998 201.38323906 -40.10419086 201.38856107 -44.30542946 201.39391804 C-48.44103439 201.39729401 -52.57657671 201.39056477 -56.71216965 201.3807888 C-58.64216152 201.37701896 -60.57216043 201.37575312 -62.5021553 201.37737465 C-72.69705441 201.378812 -82.81919243 201.09016155 -92.98193359 200.24291992 C-94.31825553 200.13952411 -94.31825553 200.13952411 -95.68157387 200.0340395 C-103.84533179 199.27571208 -111.81317116 197.46688116 -118.19921875 192.07421875 C-122.33418292 186.7259435 -125.30785406 182.2234981 -125.3531189 175.33224487 C-125.36171936 174.3566713 -125.37031982 173.38109772 -125.37918091 172.3759613 C-125.38344086 171.30685013 -125.38770081 170.23773895 -125.39208984 169.13623047 C-125.40435608 167.44550667 -125.40435608 167.44550667 -125.41687012 165.72062683 C-125.44172914 161.98172539 -125.45824284 158.24286196 -125.47265625 154.50390625 C-125.47797993 153.22708103 -125.4833036 151.95025581 -125.4887886 150.63473892 C-125.51002039 145.26630375 -125.52914909 139.89788187 -125.540411 134.52941704 C-125.55662693 126.85119076 -125.58974806 119.17347236 -125.64681184 111.4954375 C-125.69030135 105.43580557 -125.70616829 99.37637159 -125.71254349 93.31659317 C-125.71925429 90.74503086 -125.73447169 88.17347587 -125.7584343 85.60201645 C-125.79010629 81.99714553 -125.7901184 78.39354816 -125.78271484 74.78857422 C-125.79912018 73.73160843 -125.81552551 72.67464264 -125.83242798 71.58564758 C-125.76297765 63.29940776 -123.40111478 57.72005184 -117.9453125 51.5078125 C-111.69947239 46.10743298 -105.13032847 41.54768399 -98.19921875 37.07421875 C-91.09349381 32.22309225 -84.12740126 27.17461442 -77.19921875 22.07421875 C-76.59271484 21.62916992 -75.98621094 21.18412109 -75.36132812 20.72558594 C-68.1545438 15.42647982 -61.07865445 10.0680257 -54.32421875 4.19921875 C-49.27476268 -0.1637391 -44.15892064 -3.89437579 -38.19921875 -6.92578125 C-37.53664063 -7.26351562 -36.8740625 -7.60125 -36.19140625 -7.94921875 C-22.56450438 -13.96270986 -11.58150025 -6.97152579 0 0 Z M-31.82421875 21.32421875 C-33.01101403 22.25220406 -34.19854598 23.17924781 -35.38671875 24.10546875 C-36.01191406 24.59402344 -36.63710937 25.08257812 -37.28125 25.5859375 C-40.4358936 28.03383813 -43.62797578 30.43102186 -46.82421875 32.82421875 C-47.4884082 33.32155518 -48.15259766 33.8188916 -48.83691406 34.33129883 C-58.8879943 41.84347144 -68.96310338 49.32744499 -79.16015625 56.640625 C-80.36599365 57.50602905 -80.36599365 57.50602905 -81.59619141 58.38891602 C-83.11189942 59.47450767 -84.62965095 60.55725465 -86.14990234 61.63647461 C-86.84164551 62.13155518 -87.53338867 62.62663574 -88.24609375 63.13671875 C-89.14086426 63.77287109 -89.14086426 63.77287109 -90.05371094 64.421875 C-90.76172852 64.96714844 -91.46974609 65.51242188 -92.19921875 66.07421875 C-93.04707176 66.63217856 -93.04707176 66.63217856 -93.91205311 67.20141029 C-96.70140389 69.22797123 -98.83097892 70.83506479 -99.83652687 74.21880722 C-100.06020194 76.81500536 -100.06566372 79.33007175 -99.99389648 81.93505859 C-99.99491867 82.91129181 -99.99594086 83.88752502 -99.99699402 84.89334106 C-99.99213123 88.10840161 -99.93774997 91.32059421 -99.8828125 94.53515625 C-99.8697517 96.76858977 -99.85978981 99.00204338 -99.85279846 101.23550415 C-99.82611133 107.1050382 -99.75738114 112.97335363 -99.67987061 118.84240723 C-99.60817679 124.83487463 -99.57627371 130.82753955 -99.54101562 136.8203125 C-99.46601259 148.57214908 -99.34658892 160.32308246 -99.19921875 172.07421875 C-90.08683336 176.63041144 -75.23038817 174.16342875 -65.19921875 174.07421875 C-63.55410119 170.78398363 -64.19245123 167.12352537 -64.26171875 163.51171875 C-64.39945526 146.20283076 -63.14601721 126.83294244 -53.19921875 112.07421875 C-52.62171875 111.18734375 -52.04421875 110.30046875 -51.44921875 109.38671875 C-48.10567907 105.95030297 -44.28362468 103.55209168 -40.19921875 101.07421875 C-39.57015625 100.666875 -38.94109375 100.25953125 -38.29296875 99.83984375 C-31.22386526 95.70621544 -22.47809262 95.26661544 -14.51171875 96.63671875 C-3.8979108 99.59690005 2.74336301 106.17207431 8.19921875 115.453125 C16.54208879 131.20345238 19.46753109 149.39188988 21.20556641 166.95776367 C21.27608445 170.30578459 21.27608445 170.30578459 22.80078125 173.07421875 C24.37890178 173.10310969 25.95844464 173.06094209 27.53515625 172.98828125 C28.50195312 172.94445312 29.46875 172.900625 30.46484375 172.85546875 C31.48320312 172.80390625 32.5015625 172.75234375 33.55078125 172.69921875 C34.55367187 172.65539062 35.5565625 172.6115625 36.58984375 172.56640625 C41.11108125 172.35053815 45.36487478 171.99613314 49.80078125 171.07421875 C50.05614806 158.20901684 50.25135126 145.34442194 50.37071514 132.47719765 C50.42801842 126.5016259 50.5056803 120.5277934 50.63061523 114.55322266 C50.75052881 108.78237318 50.81598756 103.01319142 50.84443092 97.24119186 C50.86468756 95.04423142 50.90424778 92.84735786 50.96381187 90.6511116 C51.80969691 78.43927323 51.80969691 78.43927323 47.41700745 67.53877258 C44.66304824 64.99361376 42.00393856 63.00849635 38.80078125 61.07421875 C37.48573459 60.13033925 36.1734422 59.18257237 34.8671875 58.2265625 C33.70484361 57.47945683 32.53688945 56.74100197 31.36328125 56.01171875 C30.07375751 55.17981028 28.78601834 54.34512964 27.5 53.5078125 C26.87528809 53.10159668 26.25057617 52.69538086 25.60693359 52.27685547 C19.74264315 48.37208462 14.22599879 43.9534607 8.66015625 39.640625 C-10.73737851 21.62114532 -10.73737851 21.62114532 -31.82421875 21.32421875 Z M-29.8515625 125.37109375 C-37.70864993 135.30063033 -37.51206269 149.23927232 -37.82421875 161.26171875 C-37.94796875 165.48984375 -38.07171875 169.71796875 -38.19921875 174.07421875 C-27.30921875 174.07421875 -16.41921875 174.07421875 -5.19921875 174.07421875 C-7.44135766 147.30198519 -7.44135766 147.30198519 -18.19921875 123.07421875 C-23.12109152 121.40263932 -26.02973423 121.66137244 -29.8515625 125.37109375 Z " fill="#1D3050" transform="translate(147.19921875,69.92578125)"/>
<path d="M0 0 C0.33 0.66 0.66 1.32 1 2 C0.0625 4.125 0.0625 4.125 -1 6 C-1.66 6 -2.32 6 -3 6 C-3.144375 6.639375 -3.28875 7.27875 -3.4375 7.9375 C-4 10 -4 10 -5 11 C-6.02096205 17.30375017 -6.17968672 23.51858479 -6.23706055 29.89477539 C-6.25017273 30.95759232 -6.26328491 32.02040924 -6.27679443 33.11543274 C-6.31838863 36.60947159 -6.35302183 40.10353288 -6.38671875 43.59765625 C-6.41239528 46.03568125 -6.43817917 48.47370512 -6.46406555 50.91172791 C-6.5169267 56.01314629 -6.56586763 61.11458598 -6.61254883 66.21606445 C-6.67301069 72.74848989 -6.74724757 79.28068021 -6.82492352 85.81292057 C-6.88254589 90.8443361 -6.93082928 95.87580991 -6.976511 100.90734673 C-6.99988579 103.31588659 -7.02663033 105.72439622 -7.05682945 108.13286018 C-7.09805369 111.50010458 -7.12619367 114.86722002 -7.15112305 118.23461914 C-7.16609329 119.22546509 -7.18106354 120.21631104 -7.19648743 121.23718262 C-7.22074526 126.54684028 -6.9200909 131.01959271 -5 136 C-3.68352881 136.69937532 -2.34977849 137.36729133 -1 138 C0.25 141.125 0.25 141.125 1 144 C0.01 144 -0.98 144 -2 144 C-3.53515625 142.42578125 -3.53515625 142.42578125 -5.0625 140.3125 C-5.56910156 139.62800781 -6.07570313 138.94351563 -6.59765625 138.23828125 C-9.1139841 134.22196967 -10.24812588 130.75535747 -10.27415466 126.01751709 C-10.28412979 125.03919418 -10.29410492 124.06087128 -10.30438232 123.05290222 C-10.305047 121.9909816 -10.30571167 120.92906097 -10.30639648 119.83496094 C-10.31472 118.70751968 -10.32304352 117.58007843 -10.33161926 116.41847229 C-10.35571881 112.69040474 -10.36449184 108.9625122 -10.37109375 105.234375 C-10.38006069 102.63991239 -10.38918255 100.04545031 -10.39845276 97.45098877 C-10.41494563 92.01044103 -10.42267625 86.56996362 -10.42553711 81.12939453 C-10.42916834 74.85755675 -10.45903779 68.58620954 -10.50094169 62.31452155 C-10.53993566 56.26447006 -10.55113201 50.21468869 -10.55226326 44.16449738 C-10.55646322 41.59852694 -10.56888833 39.03255599 -10.58978081 36.46666718 C-10.61672124 32.8715532 -10.61186002 29.27778153 -10.59936523 25.68261719 C-10.61419952 24.62879349 -10.62903381 23.57496979 -10.64431763 22.48921204 C-10.56144704 14.08979279 -8.0978717 7.96235175 -2.1875 1.9375 C-1.465625 1.298125 -0.74375 0.65875 0 0 Z " fill="#313645" transform="translate(32,119)"/>
<path d="M0 0 C1.32 0 2.64 0 4 0 C4 0.66 4 1.32 4 2 C5.11375 2.185625 5.11375 2.185625 6.25 2.375 C8.80141485 2.95486701 10.7267573 3.73708739 13 5 C13 6.32 13 7.64 13 9 C13.78375 9.12375 14.5675 9.2475 15.375 9.375 C18 10 18 10 20 12 C20.24291992 14.74731445 20.24291992 14.74731445 20.23046875 18.36328125 C20.23046371 19.03865433 20.23045868 19.7140274 20.23045349 20.40986633 C20.22686903 22.71091566 20.20767309 25.01153975 20.1875 27.3125 C20.17918811 28.9503564 20.17122346 30.58821459 20.16357422 32.22607422 C20.1357293 37.01741357 20.08840015 41.80841542 20.03643799 46.59954834 C19.996741 50.30413535 19.96108178 54.00875217 19.92529297 57.71337891 C19.85696603 64.62986028 19.7726328 71.54605933 19.67959595 78.46224976 C19.64236311 81.23844398 19.60906949 84.01464382 19.57894897 86.79092407 C19.53556316 90.72799822 19.47562793 94.66472874 19.4140625 98.6015625 C19.40249619 99.79477615 19.39092987 100.98798981 19.37901306 102.21736145 C19.35915848 103.31690659 19.33930389 104.41645172 19.31884766 105.54931641 C19.30552399 106.50947662 19.29220032 107.46963684 19.2784729 108.45889282 C18.9885495 111.10448757 18.2388166 112.67871369 17 115 C17.00967804 113.75464981 17.01935608 112.50929962 17.02932739 111.22621155 C17.11414068 99.47062285 17.14617034 87.71590757 17.12697029 75.9600153 C17.11878416 69.91647659 17.12897514 63.87414963 17.18164062 57.83081055 C17.23181594 51.99472809 17.23309537 46.16046711 17.20095444 40.32427788 C17.1972129 38.10159817 17.21087555 35.87881663 17.24249649 33.65635872 C17.80593714 21.62180846 17.80593714 21.62180846 13.82122803 10.66818237 C11.31396456 8.36910748 8.95689953 6.66242789 6 5 C4.78820859 4.17170327 3.57914156 3.33937893 2.375 2.5 C1.59125 2.005 0.8075 1.51 0 1 C0 0.67 0 0.34 0 0 Z " fill="#52464E" transform="translate(180,127)"/>
<path d="M0 0 C0.66 0.66 1.32 1.32 2 2 C1.9375 4 1.9375 4 1 6 C0.195625 6.28875 -0.60875 6.5775 -1.4375 6.875 C-4.30117382 7.77248308 -4.30117382 7.77248308 -5.125 10.875 C-5.558125 12.421875 -5.558125 12.421875 -6 14 C-6.98731742 15.34275169 -7.98594743 16.67732273 -9 18 C-9.70514846 20.14733927 -9.70514846 20.14733927 -10 22 C-10.66 22 -11.32 22 -12 22 C-12.05534912 22.78238037 -12.11069824 23.56476074 -12.16772461 24.37084961 C-12.41958041 27.89342387 -12.67844455 31.41544822 -12.9375 34.9375 C-13.02451172 36.16919922 -13.11152344 37.40089844 -13.20117188 38.66992188 C-13.28818359 39.83974609 -13.37519531 41.00957031 -13.46484375 42.21484375 C-13.543396 43.29886475 -13.62194824 44.38288574 -13.70288086 45.49975586 C-14 48 -14 48 -15 49 C-15.15655027 50.48638992 -15.25066943 51.97949127 -15.31640625 53.47265625 C-15.35830078 54.37177734 -15.40019531 55.27089844 -15.44335938 56.19726562 C-15.48267578 57.14279297 -15.52199219 58.08832031 -15.5625 59.0625 C-15.60568359 60.01189453 -15.64886719 60.96128906 -15.69335938 61.93945312 C-15.79979276 64.29281353 -15.90181008 66.64628354 -16 69 C-16.99 68.67 -17.98 68.34 -19 68 C-19.44865506 45.29306877 -19.36673801 19.65884891 -3 2 C-2.01 1.34 -1.02 0.68 0 0 Z " fill="#282837" transform="translate(101,174)"/>
<path d="M0 0 C0.99 0.33 1.98 0.66 3 1 C2.67 1.66 2.34 2.32 2 3 C1.87692886 6.08106328 1.81418925 9.14093958 1.79467773 12.22314453 C1.78477814 13.1792865 1.77487854 14.13542847 1.76467896 15.12054443 C1.7330088 18.29127499 1.70828473 21.46202054 1.68359375 24.6328125 C1.66302899 26.8271423 1.64203265 29.0214681 1.62062073 31.21578979 C1.56535073 36.99929568 1.51596321 42.78283761 1.46777344 48.56640625 C1.41759435 54.46487649 1.36188956 60.36329421 1.30664062 66.26171875 C1.19899879 77.841101 1.09756723 89.42052879 1 101 C-1.67834618 98.32165382 -1.2364923 96.29910248 -1.24884033 92.65887451 C-1.24164978 91.76839417 -1.23445923 90.87791382 -1.22705078 89.96044922 C-1.22734283 89.02381439 -1.22763489 88.08717957 -1.22793579 87.12216187 C-1.22653885 84.01624389 -1.21096049 80.91056374 -1.1953125 77.8046875 C-1.19158367 75.65520356 -1.18873608 73.50571793 -1.18673706 71.35623169 C-1.17909039 65.69101288 -1.15943303 60.02589617 -1.1373291 54.36071777 C-1.11689291 48.58294048 -1.10774011 42.80514674 -1.09765625 37.02734375 C-1.07618812 25.68485091 -1.04203973 14.34243393 -1 3 C-1.66 2.67 -2.32 2.34 -3 2 C-2.01 1.34 -1.02 0.68 0 0 Z " fill="#0C2C59" transform="translate(46,139)"/>
<path d="M0 0 C0.33 0.66 0.66 1.32 1 2 C0.0625 4.125 0.0625 4.125 -1 6 C-1.66 6 -2.32 6 -3 6 C-3.144375 6.639375 -3.28875 7.27875 -3.4375 7.9375 C-4 10 -4 10 -5 11 C-5.78952728 16.16862787 -6.13989772 21.19181742 -6.20532227 26.42578125 C-6.21522186 27.11945297 -6.22512146 27.81312469 -6.23532104 28.52781677 C-6.26656216 30.78934478 -6.29154319 33.05089369 -6.31640625 35.3125 C-6.3370082 36.89290877 -6.35800546 38.47331242 -6.37937927 40.05371094 C-6.43426554 44.18983798 -6.48382063 48.32601196 -6.53222656 52.46221924 C-6.58268765 56.69230264 -6.63824456 60.92231887 -6.69335938 65.15234375 C-6.80053112 73.43483884 -6.90206503 81.71739056 -7 90 C-7.66 89.67 -8.32 89.34 -9 89 C-9.24727437 79.37716495 -9.46638739 69.75421 -9.65021229 60.12995243 C-9.73645414 55.66032465 -9.83214863 51.19132828 -9.94995117 46.72241211 C-10.06342022 42.40437615 -10.15139819 38.08648442 -10.22220421 33.7675457 C-10.25351471 32.12525317 -10.2937918 30.48310477 -10.34345436 28.84126472 C-10.63822944 18.87096689 -10.44019229 11.1985386 -3.56428528 3.364151 C-2.42979203 2.18856759 -1.22299041 1.08322008 0 0 Z " fill="#262F42" transform="translate(32,119)"/>
<path d="M0 0 C1.86591797 0.32484375 1.86591797 0.32484375 3.76953125 0.65625 C12.55263156 2.14112773 21.0552107 3.54271755 30 3 C30.33 2.01 30.66 1.02 31 0 C31 0.66 31 1.32 31 2 C34.9289487 4.66151134 39.16346123 4.2666235 43.71582031 4.22705078 C45.0334285 4.22748886 45.0334285 4.22748886 46.37765503 4.22793579 C49.27791255 4.22654367 52.17791242 4.21098794 55.078125 4.1953125 C57.09022888 4.19158195 59.10233457 4.18873518 61.11444092 4.18673706 C66.40809146 4.1791039 71.70163211 4.15945807 76.99523926 4.1373291 C82.39785272 4.11686389 87.80048395 4.10773389 93.203125 4.09765625 C103.80213159 4.07621193 114.40105666 4.04207975 125 4 C125.495 4.99 125.495 4.99 126 6 C113.99351095 6.04672115 101.98704418 6.08206843 89.9804821 6.10362434 C84.4029706 6.11397969 78.82552212 6.12798448 73.24804688 6.15087891 C67.84688845 6.17290615 62.44578994 6.18463028 57.04459 6.18975449 C55.00294173 6.19339746 52.96129605 6.20050756 50.91967392 6.21146011 C40.28550346 6.26614291 29.73094904 6.06411027 19.12939453 5.17529297 C18.24386335 5.10596117 17.35833218 5.03662937 16.44596672 4.96519661 C10.62608473 4.41610452 5.45937996 3.0817701 0 1 C0 0.67 0 0.34 0 0 Z " fill="#19253C" transform="translate(35,265)"/>
<path d="M0 0 C5 6.36363636 5 6.36363636 5 11 C5.66 11 6.32 11 7 11 C7 11.66 7 12.32 7 13 C7.66 13 8.32 13 9 13 C9.06058594 13.77085937 9.12117187 14.54171875 9.18359375 15.3359375 C9.26738281 16.33882812 9.35117188 17.34171875 9.4375 18.375 C9.51871094 19.37273437 9.59992188 20.37046875 9.68359375 21.3984375 C9.84965626 23.97927613 9.84965626 23.97927613 11 26 C11.15175549 27.59262066 11.24900325 29.19064856 11.31640625 30.7890625 C11.37924805 32.20058594 11.37924805 32.20058594 11.44335938 33.640625 C11.48267578 34.62546875 11.52199219 35.6103125 11.5625 36.625 C11.60568359 37.61757812 11.64886719 38.61015625 11.69335938 39.6328125 C11.79961069 42.08839838 11.90164964 44.54408703 12 47 C11.34 47 10.68 47 10 47 C9.80422363 45.7310791 9.80422363 45.7310791 9.60449219 44.43652344 C9.10572779 41.23691924 8.59759555 38.03897011 8.08349609 34.84179688 C7.86468247 33.46932606 7.64939257 32.09628785 7.43798828 30.72265625 C6.20879426 22.75328461 4.66326008 15.1649108 1.87597656 7.55957031 C1.0171769 5.05019024 0.45973345 2.60907551 0 0 Z " fill="#574A4E" transform="translate(132,197)"/>
<path d="M0 0 C5.00615114 2.84440406 7.84586216 5.59737622 10 11 C10.37238718 13.32741989 10.69836866 15.66235715 11 18 C12.02656596 21.39177394 13.12550281 24.7514911 14.2578125 28.109375 C15 31 15 31 14 34 C13.49440092 32.56445975 12.9957251 31.1264798 12.5 29.6875 C12.2215625 28.88699219 11.943125 28.08648437 11.65625 27.26171875 C11 25 11 25 11 22 C10.01 21.67 9.02 21.34 8 21 C7.015625 18.78515625 7.015625 18.78515625 6.25 16.0625 C5.98703125 15.16660156 5.7240625 14.27070313 5.453125 13.34765625 C5 11 5 11 6 9 C5.34 9 4.68 9 4 9 C4 8.01 4 7.02 4 6 C3.34 6 2.68 6 2 6 C1.34 4.02 0.68 2.04 0 0 Z " fill="#0F2B55" transform="translate(148,177)"/>
<path d="M0 0 C0 2.94166064 -0.61193285 5.18951799 -1.4230957 7.98974609 C-4.78959756 20.08521828 -7.02794022 36.91617933 -3 49 C-3.99 49.495 -3.99 49.495 -5 50 C-7.24903975 45.5019205 -6.49971999 39.44737736 -6.6875 34.5 C-6.77741211 32.63601562 -6.77741211 32.63601562 -6.86914062 30.734375 C-7.11986394 24.22243796 -7.01618534 18.31388544 -5.44848633 11.97070312 C-4.88904848 9.84931421 -4.88904848 9.84931421 -5 7 C-4.34 7 -3.68 7 -3 7 C-2.814375 5.824375 -2.814375 5.824375 -2.625 4.625 C-2 2 -2 2 0 0 Z " fill="#16335B" transform="translate(113,198)"/>
<path d="M0 0 C0.66 0.66 1.32 1.32 2 2 C1.9375 4 1.9375 4 1 6 C-0.66072849 6.68132451 -2.327767 7.34742127 -4 8 C-5.34410262 10.01735205 -5.34410262 10.01735205 -6 12 C-6.66 12 -7.32 12 -8 12 C-8.99 13.98 -9.98 15.96 -11 18 C-12 15 -12 15 -11.14453125 13.1328125 C-4.36046512 2.90697674 -4.36046512 2.90697674 0 0 Z " fill="#262C44" transform="translate(101,174)"/>
<path d="M0 0 C1.39521336 2.79042672 0.33208774 4.43508122 -0.4609375 7.31640625 C-1.39483154 11.96557442 -1.46123427 16.68493093 -1.65625 21.4140625 C-1.99064549 24.90241542 -2.7552337 27.73750767 -4 31 C-4.33 31 -4.66 31 -5 31 C-5.66132661 20.43714437 -3.92716885 11.10990046 -1 1 C-0.67 0.67 -0.34 0.34 0 0 Z " fill="#6A5151" transform="translate(88,193)"/>
<path d="M0 0 C6.79522201 2.87490162 11.04978244 7.39151267 14 14 C13.75 16.9375 13.75 16.9375 13 19 C10.42001527 15.74107191 8.30647667 12.27162281 6.18359375 8.70703125 C5.09730329 6.84856548 5.09730329 6.84856548 3 6 C3 5.01 3 4.02 3 3 C2.34 3 1.68 3 1 3 C0.67 2.01 0.34 1.02 0 0 Z " fill="#17345C" transform="translate(208,116)"/>
<path d="M0 0 C-0.65226562 0.30292969 -1.30453125 0.60585938 -1.9765625 0.91796875 C-7.92355274 3.73701023 -7.92355274 3.73701023 -13.1875 7.625 C-16.38828072 10.3278815 -19.11217307 11.52262576 -23 13 C-20.57468332 6.65793628 -13.40895716 3.6141932 -7.56640625 0.84765625 C-2.4104954 -1.2052477 -2.4104954 -1.2052477 0 0 Z " fill="#1D2337" transform="translate(119,61)"/>
<path d="M0 0 C2.63904594 3.03536367 3.38964384 4.9803181 3.51171875 8.984375 C3.54716797 9.91894531 3.58261719 10.85351562 3.61914062 11.81640625 C3.64169922 12.78449219 3.66425781 13.75257813 3.6875 14.75 C3.72166016 15.73355469 3.75582031 16.71710938 3.79101562 17.73046875 C3.87335273 20.15353199 3.94254838 22.57623998 4 25 C3.34 25 2.68 25 2 25 C-0.21462689 16.59628191 -0.20705918 8.6274658 0 0 Z " fill="#453843" transform="translate(140,219)"/>
<path d="M0 0 C4.54045446 2.46992314 9.05972443 4.97853141 13.5 7.625 C14.1496875 8.00914063 14.799375 8.39328125 15.46875 8.7890625 C17 10 17 10 18 13 C13.4540827 12.07874883 10.44936307 9.74303442 6.75 7.0625 C6.1003125 6.60681641 5.450625 6.15113281 4.78125 5.68164062 C3.14687276 4.50907797 1.56804756 3.25988848 0 2 C0 1.34 0 0.68 0 0 Z " fill="#232A3B" transform="translate(160,112)"/>
<path d="M0 0 C2 1.375 2 1.375 4 3 C4 3.66 4 4.32 4 5 C4.61875 5.20625 5.2375 5.4125 5.875 5.625 C8.84653645 7.54775888 9.13024659 9.66594527 10 13 C9.01 13 8.02 13 7 13 C3.3893345 9.38035275 0.32652507 5.22440104 0 0 Z " fill="#303546" transform="translate(23,250)"/>
<path d="M0 0 C1.82190102 0.70534883 3.63241287 1.44017093 5.4375 2.1875 C6.95150391 2.79658203 6.95150391 2.79658203 8.49609375 3.41796875 C11 5 11 5 11.84765625 7.67578125 C11.92306641 8.82626953 11.92306641 8.82626953 12 10 C8.37723685 8.6744419 5.36494652 7.05653045 2.1875 4.875 C1.39730469 4.33617188 0.60710937 3.79734375 -0.20703125 3.2421875 C-0.79871094 2.83226563 -1.39039063 2.42234375 -2 2 C-1.34 1.34 -0.68 0.68 0 0 Z " fill="#212A40" transform="translate(132,90)"/>
<path d="M0 0 C0.66 0.99 1.32 1.98 2 3 C1.525625 3.5775 1.05125 4.155 0.5625 4.75 C-0.9484867 6.92582084 -1.54036151 8.42602448 -2 11 C-2.66 11 -3.32 11 -4 11 C-4.12375 12.299375 -4.2475 13.59875 -4.375 14.9375 C-4.5859375 17.15234375 -4.5859375 17.15234375 -5 19 C-5.66 19.33 -6.32 19.66 -7 20 C-6.69147815 18.041036 -6.3780582 16.08284287 -6.0625 14.125 C-5.80146484 12.48917969 -5.80146484 12.48917969 -5.53515625 10.8203125 C-4.71696779 6.5083996 -2.41806568 3.62709852 0 0 Z " fill="#302E3E" transform="translate(93,185)"/>
<path d="M0 0 C1.32 0 2.64 0 4 0 C4 0.66 4 1.32 4 2 C5.11375 2.185625 5.11375 2.185625 6.25 2.375 C8.80141485 2.95486701 10.7267573 3.73708739 13 5 C13 6.32 13 7.64 13 9 C9.32048886 8.39237431 7.14008504 6.80451225 4.25 4.5 C3.45078125 3.8709375 2.6515625 3.241875 1.828125 2.59375 C1.22484375 2.0678125 0.6215625 1.541875 0 1 C0 0.67 0 0.34 0 0 Z " fill="#252D3C" transform="translate(180,127)"/>
<path d="M0 0 C0 2.61674859 -0.27101621 4.50141113 -0.875 7.01171875 C-1.05546875 7.76904297 -1.2359375 8.52636719 -1.421875 9.30664062 C-1.61265625 10.09232422 -1.8034375 10.87800781 -2 11.6875 C-2.19078125 12.48478516 -2.3815625 13.28207031 -2.578125 14.10351562 C-3.04907535 16.06973333 -3.52414266 18.0349641 -4 20 C-4.66 19.67 -5.32 19.34 -6 19 C-5.67 15.04 -5.34 11.08 -5 7 C-4.34 7 -3.68 7 -3 7 C-2.87625 6.21625 -2.7525 5.4325 -2.625 4.625 C-2 2 -2 2 0 0 Z " fill="#0D2C56" transform="translate(113,198)"/>
<path d="M0 0 C0.33 0 0.66 0 1 0 C1.89604368 6.04829486 2.11269443 11.8894576 2 18 C1.67 18 1.34 18 1 18 C0.79503906 17.22914063 0.59007812 16.45828125 0.37890625 15.6640625 C0.10949219 14.66117188 -0.15992188 13.65828125 -0.4375 12.625 C-0.83775391 11.12839844 -0.83775391 11.12839844 -1.24609375 9.6015625 C-1.90184356 7.04582299 -1.90184356 7.04582299 -3 5 C-2.34 4.67 -1.68 4.34 -1 4 C-0.34786708 1.97536745 -0.34786708 1.97536745 0 0 Z " fill="#1A3A61" transform="translate(167,225)"/>
<path d="M0 0 C0.66 0.99 1.32 1.98 2 3 C0.35 4.32 -1.3 5.64 -3 7 C-3.66 6.67 -4.32 6.34 -5 6 C-5 6.66 -5 7.32 -5 8 C-6.65 8 -8.3 8 -10 8 C-6.66666667 5.33333333 -3.33333333 2.66666667 0 0 Z " fill="#272D40" transform="translate(53,104)"/>
<path d="M0 0 C5.40489519 1.52012677 8.98492628 5.27385218 13 9 C9.93109813 10.53445094 7.29905734 9.54984289 4 9 C4.268125 8.443125 4.53625 7.88625 4.8125 7.3125 C4.874375 6.549375 4.93625 5.78625 5 5 C2.64573501 2.22877725 2.64573501 2.22877725 0 0 Z " fill="#1C385C" transform="translate(158,79)"/>
<path d="M0 0 C6.89608177 4.19761499 6.89608177 4.19761499 8 8 C7.67 8.99 7.34 9.98 7 11 C7 10.34 7 9.68 7 9 C6.01 9 5.02 9 4 9 C4 8.01 4 7.02 4 6 C3.34 6 2.68 6 2 6 C1.34 4.02 0.68 2.04 0 0 Z " fill="#163764" transform="translate(148,177)"/>
<path d="M0 0 C1.32 0.33 2.64 0.66 4 1 C0.7 3.64 -2.6 6.28 -6 9 C-6.33 8.34 -6.66 7.68 -7 7 C-6.67 6.34 -6.34 5.68 -6 5 C-5.01 5 -4.02 5 -3 5 C-2.690625 4.360625 -2.38125 3.72125 -2.0625 3.0625 C-1 1 -1 1 0 0 Z " fill="#1D3A5E" transform="translate(56,132)"/>
<path d="M0 0 C0.66 0.99 1.32 1.98 2 3 C-0.97180943 4.89865603 -3.51460083 6.35455571 -7 7 C-5.54744301 3.17053157 -3.57104439 1.87949705 0 0 Z " fill="#24293F" transform="translate(42,112)"/>
<path d="M0 0 C0 3.15084005 -0.45473667 4.33871316 -2 7 C-2.66 7.66 -3.32 8.32 -4 9 C-4.69748583 10.31747324 -5.36959957 11.64914193 -6 13 C-7 10 -7 10 -6.07421875 8.02734375 C-5.61660156 7.33769531 -5.15898438 6.64804688 -4.6875 5.9375 C-4.23761719 5.24527344 -3.78773437 4.55304688 -3.32421875 3.83984375 C-2 2 -2 2 0 0 Z " fill="#614E53" transform="translate(96,179)"/>
<path d="M0 0 C-0.33 1.32 -0.66 2.64 -1 4 C-3.31 4.66 -5.62 5.32 -8 6 C-6.56530686 1.69592058 -4.58010985 0 0 0 Z " fill="#262E41" transform="translate(81,86)"/>
<path d="M0 0 C1.44349674 0.73839246 2.87959051 1.49126643 4.3125 2.25 C5.11300781 2.66765625 5.91351563 3.0853125 6.73828125 3.515625 C9.13190204 5.08656783 10.43301591 6.6267037 12 9 C11.34 9.66 10.68 10.32 10 11 C9.79375 10.401875 9.5875 9.80375 9.375 9.1875 C7.49073918 6.18981233 5.18867916 5.38638224 2 4 C2 3.34 2 2.68 2 2 C1.34 2 0.68 2 0 2 C0 1.34 0 0.68 0 0 Z " fill="#213859" transform="translate(190,102)"/>
<path d="M0 0 C1.32 0.33 2.64 0.66 4 1 C3.43628586 4.26954202 2.50037734 5.82575883 0 8 C0 5.36 0 2.72 0 0 Z " fill="#19375F" transform="translate(114,192)"/>
<path d="M0 0 C0 0.99 0 1.98 0 3 C-0.639375 3.268125 -1.27875 3.53625 -1.9375 3.8125 C-4.33131686 4.88667752 -4.33131686 4.88667752 -5 8 C-5.99 7.67 -6.98 7.34 -8 7 C-8 6.01 -8 5.02 -8 4 C-5.36 2.68 -2.72 1.36 0 0 Z " fill="#2B2F3F" transform="translate(111,168)"/>
<path d="M0 0 C4.43458973 1.3937282 6.87378374 3.60582235 10 7 C7.5625 6.625 7.5625 6.625 5 6 C4.67 5.34 4.34 4.68 4 4 C3.01 4 2.02 4 1 4 C0.67 2.68 0.34 1.36 0 0 Z " fill="#1F3A5B" transform="translate(175,92)"/>
<path d="M0 0 C0.66 1.32 1.32 2.64 2 4 C0.02 4.33 -1.96 4.66 -4 5 C-3 2 -3 2 0 0 Z " fill="#413E4C" transform="translate(101,174)"/>
</svg>
