<?xml version="1.0" encoding="UTF-8"?>
<svg version="1.1" xmlns="http://www.w3.org/2000/svg" width="352" height="315">
<path d="M0 0 C1.3303125 0.86625 1.3303125 0.86625 2.6875 1.75 C12.57597979 11.37122358 17.50711789 24.14235783 18.1875 37.75 C17.86768554 50.64098303 12.97340794 64.96292432 3.80859375 74.42578125 C-8.77653459 85.38000743 -20.1901866 91.60574387 -37.015625 91.27734375 C-50.15295984 90.36288221 -64.20810568 83.95374229 -73 74 C-74.69688596 71.76639477 -76.2719517 69.46868665 -77.8125 67.125 C-78.37251709 66.27808594 -78.37251709 66.27808594 -78.94384766 65.4140625 C-85.72044935 54.58626497 -87.36105241 41.31134266 -84.51074219 28.86328125 C-80.4147641 15.77182977 -70.7018608 4.2762934 -59.04296875 -2.79296875 C-56.07154982 -4.33780144 -53.09033462 -5.71098342 -50 -7 C-48.80117187 -7.51046875 -48.80117187 -7.51046875 -47.578125 -8.03125 C-31.57253075 -13.83193516 -13.56379318 -9.45827724 0 0 Z M-51 25 C-56.16706254 31.84123898 -59.0187102 37.29730431 -58 46 C-54.6642937 53.73883862 -48.77552108 59.84808683 -41.03125 63.2734375 C-35.58006242 65.22328537 -31.74122122 65.58645111 -26.3125 63.3125 C-17.83547763 59.00855725 -14.60871777 53.59010951 -10.6875 45.1875 C-9.34193275 38.94896092 -8.59864113 31.83835066 -11.625 26 C-15.83641051 20.68032356 -20.38401644 18.28051295 -27 17 C-36.92698742 16.23844107 -43.8998448 17.55305059 -51 25 Z " fill="#1D304F" transform="translate(171,75)"/>
<path d="M0 0 C9.57906809 9.12208503 15.58696014 20.6193105 16.40625 33.91015625 C16.44816538 35.62737697 16.47929034 37.34489265 16.5 39.0625 C16.54125 39.92166016 16.5825 40.78082031 16.625 41.66601562 C16.69583492 47.46119753 15.5764156 50.49413745 11.58789062 54.72045898 C8.41338176 57.27851571 5.0107296 57.27346068 1.0625 57.22265625 C-2.87382267 56.79771233 -5.81530677 54.98043578 -8.8125 52.5 C-11.32893953 49.32133954 -11.14790677 45.94219747 -11.3125 42.0625 C-11.93229597 33.76463453 -13.32154969 25.43674459 -19.0625 19.0625 C-26.28772091 12.94033552 -35.35929099 10.17048536 -44.5625 8.6875 C-45.56482666 8.52435303 -46.56715332 8.36120605 -47.59985352 8.19311523 C-67.85800076 5.28649166 -100.24524156 2.11135118 -118 14 C-127.2451737 21.28683641 -132.46043529 36.08612167 -134.234375 47.23046875 C-135.32694128 51.18266003 -137.4842223 53.86316673 -140.75 56.3125 C-145.55540854 57.78081928 -149.62671559 57.50177699 -154.25 55.8125 C-157.31371741 53.7932317 -158.95607364 52.04450956 -161 49 C-163.17856679 38.17789872 -159.31254661 28.6710184 -155 19 C-154.53207031 17.90171875 -154.06414062 16.8034375 -153.58203125 15.671875 C-150.19753352 8.27717407 -145.76769741 2.69611251 -140 -3 C-139.45859375 -3.56332031 -138.9171875 -4.12664062 -138.359375 -4.70703125 C-107.38756257 -34.34924567 -30.45755065 -27.26308784 0 0 Z " fill="#1D3050" transform="translate(210,210)"/>
<path d="M0 0 C4.18741671 2.13177578 5.40259232 3.39631247 7.02734375 7.7578125 C8.51311233 13.22160662 9.38533406 18.34843386 9 24 C10.134375 23.95875 11.26875 23.9175 12.4375 23.875 C18.63179408 23.90789006 24.52047882 24.48247361 29.5 28.4375 C32.49896852 31.51144273 32.9299474 33.0718031 33.25 37.3125 C32.91763399 42.21489866 31.67348168 45.48340722 28 48.8125 C23.91903541 51.23557273 20.46318666 51.10516685 15.8125 51.0625 C14.54019531 51.05347656 13.26789063 51.04445312 11.95703125 51.03515625 C10.49330078 51.01775391 10.49330078 51.01775391 9 51 C9.05220703 51.90878906 9.05220703 51.90878906 9.10546875 52.8359375 C9.33201896 59.84820585 8.87838504 66.77266884 4.81640625 72.73828125 C1.83737341 75.73419247 -1.02619863 76.34383358 -5.0625 76.5 C-9.12066859 76.28063954 -11.82587971 75.69319297 -15 73 C-18.96408878 68.46961282 -19.11655726 64.70474177 -19.0625 58.8125 C-19.05347656 57.54019531 -19.04445312 56.26789063 -19.03515625 54.95703125 C-19.02355469 53.98121094 -19.01195312 53.00539062 -19 52 C-19.92941406 51.96261719 -20.85882813 51.92523438 -21.81640625 51.88671875 C-37.21769262 51.06767224 -37.21769262 51.06767224 -42.4375 45.3125 C-44.47536881 40.99221812 -44.52774616 38.74971544 -44 34 C-42.32813095 30.23829464 -40.42565532 28.21553806 -37 26 C-34.44921875 25.26953125 -34.44921875 25.26953125 -31.6875 24.8125 C-30.78386719 24.65394531 -29.88023437 24.49539062 -28.94921875 24.33203125 C-25.6131703 23.95644964 -22.35436226 23.94583017 -19 24 C-19.05220703 22.58847656 -19.05220703 22.58847656 -19.10546875 21.1484375 C-19.13253906 19.90320313 -19.15960938 18.65796875 -19.1875 17.375 C-19.23970703 15.53035156 -19.23970703 15.53035156 -19.29296875 13.6484375 C-18.91994324 9.00302654 -17.46110855 5.76550616 -14.5 2.1875 C-10.45191989 -1.01723009 -4.86806707 -0.62177804 0 0 Z " fill="#1D3050" transform="translate(268,116)"/>
<path d="M0 0 C0 0.99 0 1.98 0 3 C-0.66 3.66 -1.32 4.32 -2 5 C-2.268125 5.804375 -2.53625 6.60875 -2.8125 7.4375 C-3.8893688 10.66810641 -5.12219664 13.70133113 -6.5 16.8125 C-6.9228125 17.76769531 -7.345625 18.72289062 -7.78125 19.70703125 C-9 22 -9 22 -11 23 C-14.30786531 31.00851602 -15.2285341 40.39188215 -15 49 C-14.34 49.66 -13.68 50.32 -13 51 C-13 52.32 -13 53.64 -13 55 C-12.01 55 -11.02 55 -10 55 C-10 55.66 -10 56.32 -10 57 C-14.4577574 55.63790746 -16.43077851 53.86995705 -19 50 C-21.17504773 39.19537976 -17.3296044 29.65313537 -13 20 C-12.50886719 18.87851563 -12.01773438 17.75703125 -11.51171875 16.6015625 C-8.51206186 10.18181163 -4.99698574 5.0265537 0 0 Z " fill="#473C46" transform="translate(68,209)"/>
<path d="M0 0 C0.66 0 1.32 0 2 0 C7.46580512 13.41240002 10.875593 26.99494706 5.18457031 41.0078125 C4.20877081 43.19614981 3.18411371 45.35079302 2.125 47.5 C1.78533203 48.19480469 1.44566406 48.88960937 1.09570312 49.60546875 C-0.78591728 53.25402031 -2.42852857 55.88594516 -6 58 C-4.92776619 55.77305286 -3.82445511 53.74019356 -2.4375 51.6875 C-0.71021218 48.45822277 -0.35494426 45.62043143 0 42 C0.66 42 1.32 42 2 42 C1.979375 41.05125 1.95875 40.1025 1.9375 39.125 C2 36 2 36 3 34 C4.41336206 22.62249957 5.87182507 10.30719508 0 0 Z " fill="#1E436E" transform="translate(181,89)"/>
<path d="M0 0 C0.99 0 1.98 0 3 0 C3 0.99 3 1.98 3 3 C3.66 3.33 4.32 3.66 5 4 C7.48299824 9.67088855 8.6978709 15.08393479 9.5625 21.1875 C10.58230711 28.27592323 10.58230711 28.27592323 13 35 C10.0625 34.1875 10.0625 34.1875 7 33 C5.94845835 29.84537505 5.82805781 27.37564848 5.6875 24.0625 C5.11569524 15.8174442 2.83817739 8.31491206 -1 1 C-0.67 0.67 -0.34 0.34 0 0 Z " fill="#4F4651" transform="translate(193,228)"/>
<path d="M0 0 C-0.33 0.66 -0.66 1.32 -1 2 C-3.30648667 2.20832783 -5.62240489 2.31486766 -7.9375 2.375 C-14.68305857 2.67099818 -19.94409012 4.08175357 -26 7 C-27.33251423 7.50217887 -28.66576995 8.00239781 -30 8.5 C-33.08320139 9.72792701 -33.08320139 9.72792701 -34.4375 12.1875 C-34.623125 12.785625 -34.80875 13.38375 -35 14 C-35.99 14 -36.98 14 -38 14 C-38.2475 14.61875 -38.495 15.2375 -38.75 15.875 C-40.20628639 18.35068687 -41.37812506 18.95125002 -44 20 C-43.505 19.236875 -43.01 18.47375 -42.5 17.6875 C-40.75631692 15.07636249 -40.75631692 15.07636249 -41 12 C-28.68101047 2.1811 -15.42723602 -0.76816113 0 0 Z " fill="#242D42" transform="translate(146,65)"/>
<path d="M0 0 C3.05345605 2.03563736 4.71323399 3.54698111 6 7 C6.10477747 13.67956361 5.54569251 20.7771961 3 27 C2.01 27.33 1.02 27.66 0 28 C-0.33 28.99 -0.66 29.98 -1 31 C-2 29 -2 29 -1.44140625 27.2578125 C-1.15136719 26.55398437 -0.86132812 25.85015625 -0.5625 25.125 C2.13466309 17.46654149 1.97855019 9.54566047 -1 2 C-0.67 1.34 -0.34 0.68 0 0 Z " fill="#48434E" transform="translate(159,97)"/>
<path d="M0 0 C1.485 0.99 1.485 0.99 3 2 C3.31989599 5.38494593 3.38799936 8.66389278 3.3515625 12.05859375 C3.43712366 15.93023612 3.56602909 17.58288233 6.4140625 20.3203125 C7.26742188 20.87460938 8.12078125 21.42890625 9 22 C9.66 22.99 10.32 23.98 11 25 C8.05393171 24.86297357 5.79840482 24.70124445 3.5234375 22.703125 C-0.67662752 17.74164468 -1.13801849 14.21500345 -1.125 7.875 C-1.12886719 5.98394531 -1.12886719 5.98394531 -1.1328125 4.0546875 C-1 1 -1 1 0 0 Z " fill="#2C3042" transform="translate(250,167)"/>
<path d="M0 0 C0.66 0.33 1.32 0.66 2 1 C1.71758359 2.46015291 1.42373386 3.91809793 1.125 5.375 C0.96257812 6.18710938 0.80015625 6.99921875 0.6328125 7.8359375 C0 10 0 10 -2 12 C-2.48097617 15.10007333 -2.37925782 18.24181544 -2.375 21.375 C-2.37701416 22.27589355 -2.37902832 23.17678711 -2.38110352 24.10498047 C-2.28192071 30.65104533 -1.32641782 35.82339736 1.22265625 41.8828125 C1.47917969 42.58148438 1.73570313 43.28015625 2 44 C1.67 44.66 1.34 45.32 1 46 C0.36967867 44.79443396 -0.2539497 43.58536811 -0.875 42.375 C-1.22304687 41.70210937 -1.57109375 41.02921875 -1.9296875 40.3359375 C-4.71945291 34.2473254 -5.41755053 28.99572877 -5.4375 22.375 C-5.44330078 21.05290527 -5.44330078 21.05290527 -5.44921875 19.70410156 C-5.31755463 12.21844759 -3.73410828 6.56136169 0 0 Z " fill="#715752" transform="translate(91,94)"/>
<path d="M0 0 C0 0.99 0 1.98 0 3 C-0.66 3.66 -1.32 4.32 -2 5 C-2.268125 5.804375 -2.53625 6.60875 -2.8125 7.4375 C-3.879766 10.639298 -5.0563837 13.70750138 -6.375 16.8125 C-6.77460937 17.76769531 -7.17421875 18.72289062 -7.5859375 19.70703125 C-9 22 -9 22 -13 23 C-14.485 28.445 -14.485 28.445 -16 34 C-17.2326083 29.06956681 -15.91044506 26.34997802 -14 21.875 C-13.68256836 21.11815918 -13.36513672 20.36131836 -13.03808594 19.58154297 C-9.8350832 12.19885833 -5.84421396 5.59777121 0 0 Z " fill="#524750" transform="translate(68,209)"/>
<path d="M0 0 C0 0.66 0 1.32 0 2 C-6 5 -6 5 -9.0625 6.375 C-12.14416056 7.8955885 -12.14416056 7.8955885 -14.5625 10.625 C-17 13 -17 13 -19.6875 13.5 C-20.450625 13.665 -21.21375 13.83 -22 14 C-23.10636395 16.39068734 -23.10636395 16.39068734 -24 19 C-26.125 20.8125 -26.125 20.8125 -28 22 C-23.52634909 12.3070897 -11.65883355 0 0 0 Z " fill="#262D40" transform="translate(93,194)"/>
<path d="M0 0 C0.66666667 1.33333333 1.33333333 2.66666667 2 4 C2.37125 4.680625 2.7425 5.36125 3.125 6.0625 C4 8 4 8 4 11 C4.78375 11.20625 5.5675 11.4125 6.375 11.625 C9 13 9 13 10.3125 16.125 C10.6528125 17.548125 10.6528125 17.548125 11 19 C11.66 19 12.32 19 13 19 C14.4375 20.3125 14.4375 20.3125 16 22 C16.556875 22.556875 17.11375 23.11375 17.6875 23.6875 C18.120625 24.120625 18.55375 24.55375 19 25 C18.34 25.33 17.68 25.66 17 26 C9.18183113 20.15534949 2.37428855 14.92884301 0 5 C-0.125 2.125 -0.125 2.125 0 0 Z " fill="#2A2D3B" transform="translate(91,131)"/>
<path d="M0 0 C2.6645814 1.01070329 3.95195872 1.9399484 5.75 4.1875 C7.33571392 7.75535633 7.40806867 10.12334759 7 14 C5.5 17.4375 5.5 17.4375 4 20 C3.01 20 2.02 20 1 20 C1.66 19.34 2.32 18.68 3 18 C2.77051048 16.03294695 2.53359649 14.06582415 2.2265625 12.109375 C1.92256339 9.27903843 2.37859962 6.76177946 3 4 C2.01 3.67 1.02 3.34 0 3 C0 2.01 0 1.02 0 0 Z " fill="#1C355D" transform="translate(294,143)"/>
<path d="M0 0 C0 0.66 0 1.32 0 2 C0.71027344 1.98839844 1.42054688 1.97679687 2.15234375 1.96484375 C3.07144531 1.95582031 3.99054688 1.94679687 4.9375 1.9375 C5.85402344 1.92589844 6.77054688 1.91429687 7.71484375 1.90234375 C10 2 10 2 11 3 C12.51469448 3.23192865 14.03754562 3.41215238 15.5625 3.5625 C16.80193359 3.68818359 16.80193359 3.68818359 18.06640625 3.81640625 C18.70449219 3.87699219 19.34257812 3.93757812 20 4 C20 4.66 20 5.32 20 6 C19.05382812 5.87882813 18.10765625 5.75765625 17.1328125 5.6328125 C6.76627946 4.31579642 -3.61154799 3.1302251 -14 2 C-14 1.67 -14 1.34 -14 1 C-9.27616037 0.34843591 -4.78025483 -0.11950637 0 0 Z " fill="#212C3F" transform="translate(156,214)"/>
<path d="M0 0 C-2 2 -2 2 -3.91796875 2.16015625 C-4.66691406 2.12792969 -5.41585937 2.09570312 -6.1875 2.0625 C-10.26562724 1.96351633 -13.98280527 2.31622217 -18 3 C-18.33 3.99 -18.66 4.98 -19 6 C-22.19902639 6.08886184 -24.92677456 5.91058531 -28 5 C-28 4.34 -28 3.68 -28 3 C-18.56403855 0.98827218 -9.70835475 -0.49644996 0 0 Z " fill="#1E2A3F" transform="translate(122,190)"/>
<path d="M0 0 C0.99 0.33 1.98 0.66 3 1 C2.60167969 1.44730469 2.20335938 1.89460938 1.79296875 2.35546875 C-0.63068253 5.12114381 -2.80864013 7.66144023 -4.625 10.875 C-6 13 -6 13 -8.1875 13.8125 C-8.785625 13.874375 -9.38375 13.93625 -10 14 C-8.38798165 8.2683792 -4.12110332 4.12110332 0 0 Z " fill="#3E3546" transform="translate(103,79)"/>
<path d="M0 0 C0.68384766 0.00902344 1.36769531 0.01804687 2.07226562 0.02734375 C3.73583287 0.05061042 5.39921631 0.08646833 7.0625 0.125 C6.7325 0.785 6.4025 1.445 6.0625 2.125 C3.63894958 2.41486978 1.30749131 2.59296716 -1.125 2.6875 C-5.81204956 2.91288315 -10.32329545 3.25669712 -14.9375 4.125 C-14.9375 3.465 -14.9375 2.805 -14.9375 2.125 C-9.77803135 0.4208322 -5.4949667 -0.09725605 0 0 Z " fill="#19273D" transform="translate(138.9375,64.875)"/>
<path d="M0 0 C0.66 0.33 1.32 0.66 2 1 C1.67 1.66 1.34 2.32 1 3 C0.79670732 4.82963411 0.63527804 6.66408368 0.5 8.5 C0.11111111 13.77777778 0.11111111 13.77777778 -1 16 C-1.66 16 -2.32 16 -3 16 C-3.32712342 9.86946489 -3.39366878 5.37330889 0 0 Z " fill="#4C3D4E" transform="translate(252,120)"/>
<path d="M0 0 C3 1 3 1 5 3 C5.33 3.99 5.66 4.98 6 6 C7.04648047 8.47961237 8.097681 10.95688034 9.16015625 13.4296875 C10.03633849 16.11121269 10.15559481 18.19929344 10 21 C8.26238484 18.39357725 7.06114723 15.91863801 5.859375 13.04296875 C4.89266081 10.74482548 3.88757476 8.46579322 2.875 6.1875 C2.54242188 5.43855469 2.20984375 4.68960938 1.8671875 3.91796875 C1.27116324 2.59973491 0.64699078 1.29398157 0 0 Z " fill="#0F2B59" transform="translate(176,84)"/>
<path d="M0 0 C0.66 0 1.32 0 2 0 C2.13277344 1.20398438 2.26554688 2.40796875 2.40234375 3.6484375 C2.5805302 5.22398085 2.7589265 6.79950047 2.9375 8.375 C3.02451172 9.1690625 3.11152344 9.963125 3.20117188 10.78125 C3.6038935 15.02255001 3.6038935 15.02255001 5 19 C2 18 2 18 0.8203125 15.86328125 C-0.13935044 12.51360059 -0.19529282 9.66699481 -0.125 6.1875 C-0.10695312 5.02605469 -0.08890625 3.86460937 -0.0703125 2.66796875 C-0.04710937 1.78753906 -0.02390625 0.90710938 0 0 Z " fill="#574850" transform="translate(249,169)"/>
<path d="M0 0 C0.8353125 1.1446875 0.8353125 1.1446875 1.6875 2.3125 C3.82431688 5.08369208 3.82431688 5.08369208 6.625 6.5625 C9.27671713 8.16748669 9.82953122 9.20888213 11 12 C11.66 12.66 12.32 13.32 13 14 C9 14 9 14 7.078125 12.3203125 C6.47484375 11.59585938 5.8715625 10.87140625 5.25 10.125 C4.63640625 9.40570313 4.0228125 8.68640625 3.390625 7.9453125 C2 6 2 6 2 4 C1.34 4 0.68 4 0 4 C0 2.68 0 1.36 0 0 Z " fill="#0D2A52" transform="translate(112,123)"/>
<path d="M0 0 C0.8353125 0.37125 0.8353125 0.37125 1.6875 0.75 C0.0375 1.08 -1.6125 1.41 -3.3125 1.75 C-3.3125 3.73 -3.3125 5.71 -3.3125 7.75 C-4.3025 7.75 -5.2925 7.75 -6.3125 7.75 C-6.6425 8.74 -6.9725 9.73 -7.3125 10.75 C-7.625 7.5 -7.625 7.5 -7.3125 3.75 C-3.58836207 -0.38793103 -3.58836207 -0.38793103 0 0 Z " fill="#2B2E3F" transform="translate(233.3125,142.25)"/>
<path d="M0 0 C0.66666667 1.33333333 1.33333333 2.66666667 2 4 C2.37125 4.680625 2.7425 5.36125 3.125 6.0625 C4 8 4 8 4 11 C4.804375 11.268125 5.60875 11.53625 6.4375 11.8125 C7.283125 12.204375 8.12875 12.59625 9 13 C9.33 13.99 9.66 14.98 10 16 C7.25 15.5625 7.25 15.5625 4 14 C1.21693999 9.76637538 -0.66123082 5.12453882 0 0 Z " fill="#423C47" transform="translate(91,131)"/>
<path d="M0 0 C5.28663545 2.15381444 8.77870367 6.42236838 12 11 C11.67 11.66 11.34 12.32 11 13 C6 7.25 6 7.25 6 5 C4.68 5 3.36 5 2 5 C2 4.34 2 3.68 2 3 C0.68 2.67 -0.64 2.34 -2 2 C-1.34 1.34 -0.68 0.68 0 0 Z " fill="#203B66" transform="translate(169,75)"/>
<path d="M0 0 C-0.598125 0.226875 -1.19625 0.45375 -1.8125 0.6875 C-4.71989534 2.4319372 -5.59078188 3.91314127 -7 7 C-7.51692769 9.67907714 -7.76891068 12.27314602 -8 15 C-8.33 15 -8.66 15 -9 15 C-9.39410681 4.95027624 -9.39410681 4.95027624 -7 1 C-4.07747903 -1.07404714 -3.50040458 -1.16680153 0 0 Z " fill="#282E43" transform="translate(261,117)"/>
<path d="M0 0 C0.66 0.33 1.32 0.66 2 1 C2.31563182 6.26053037 1.66590937 9.44573816 -1 14 C-1.99 14 -2.98 14 -4 14 C-3.51917969 13.44828125 -3.03835938 12.8965625 -2.54296875 12.328125 C-0.76045839 9.63856507 -0.52248591 7.94178582 -0.3125 4.75 C-0.21388672 3.41195312 -0.21388672 3.41195312 -0.11328125 2.046875 C-0.05720703 1.03367188 -0.05720703 1.03367188 0 0 Z " fill="#26416A" transform="translate(299,149)"/>
<path d="M0 0 C0.556875 0.28875 1.11375 0.5775 1.6875 0.875 C4.08494645 2.0413253 6.51596939 3.0339881 9 4 C9 4.66 9 5.32 9 6 C9.66 6.33 10.32 6.66 11 7 C6.24518354 6.42365861 3.02951788 4.44931479 -1 2 C-0.67 1.34 -0.34 0.68 0 0 Z " fill="#232B3D" transform="translate(111,156)"/>
<path d="M0 0 C2.31 0.33 4.62 0.66 7 1 C7 1.99 7 2.98 7 4 C4.36 3.67 1.72 3.34 -1 3 C-0.67 2.01 -0.34 1.02 0 0 Z " fill="#173257" transform="translate(163,73)"/>
<path d="M0 0 C2.375 0.25 2.375 0.25 5 1 C6.1875 2.875 6.1875 2.875 7 5 C7.99 6.485 7.99 6.485 9 8 C6.50638429 6.79618552 4.31856917 5.54571278 2 4 C2 3.34 2 2.68 2 2 C1.34 2 0.68 2 0 2 C0 1.34 0 0.68 0 0 Z " fill="#122851" transform="translate(203,207)"/>
<path d="M0 0 C3.39417765 3.12621626 5.6062718 5.56541027 7 10 C2.57320993 8.52440331 2.08567304 6.09942632 0 2 C0 1.34 0 0.68 0 0 Z " fill="#0D2951" transform="translate(212,215)"/>
<path d="M0 0 C3.4375 1.3125 3.4375 1.3125 7 3 C7.33 3.99 7.66 4.98 8 6 C6.68 6.33 5.36 6.66 4 7 C0 2.25 0 2.25 0 0 Z " fill="#242D45" transform="translate(227,159)"/>
<path d="M0 0 C0.66 0.33 1.32 0.66 2 1 C1.34 3.97 0.68 6.94 0 10 C-0.99 9.01 -1.98 8.02 -3 7 C-2.01 4.69 -1.02 2.38 0 0 Z " fill="#55454D" transform="translate(91,94)"/>
<path d="M0 0 C1.65 0 3.3 0 5 0 C5 0.66 5 1.32 5 2 C5.99 2 6.98 2 8 2 C7.67 3.32 7.34 4.64 7 6 C5.83054208 5.19152271 4.66449539 4.37810888 3.5 3.5625 C2.8503125 3.11003906 2.200625 2.65757812 1.53125 2.19140625 C1.0259375 1.79824219 0.520625 1.40507812 0 1 C0 0.67 0 0.34 0 0 Z " fill="#202738" transform="translate(185,224)"/>
<path d="M0 0 C-0.33 0.66 -0.66 1.32 -1 2 C-2.175625 1.9690625 -2.175625 1.9690625 -3.375 1.9375 C-5.98114961 1.81315937 -5.98114961 1.81315937 -8 3 C-8.66 2.34 -9.32 1.68 -10 1 C-3.71428571 -1.42857143 -3.71428571 -1.42857143 0 0 Z " fill="#1E2942" transform="translate(147,139)"/>
<path d="M0 0 C0.33 0 0.66 0 1 0 C1.49230769 7.38461538 1.49230769 7.38461538 -1 10.5 C-1.66 10.995 -2.32 11.49 -3 12 C-3 10.68 -3 9.36 -3 8 C-2.34 8 -1.68 8 -1 8 C-0.67 5.36 -0.34 2.72 0 0 Z " fill="#0F305A" transform="translate(73,251)"/>
<path d="M0 0 C0.99 0.33 1.98 0.66 3 1 C2 4 2 4 -1.0625 5.6875 C-2.031875 6.120625 -3.00125 6.55375 -4 7 C-2.79618552 4.50638429 -1.54571278 2.31856917 0 0 Z " fill="#333547" transform="translate(155,129)"/>
<path d="M0 0 C0.33 0 0.66 0 1 0 C1.48828125 1.98567708 1.9765625 3.97135417 2.46484375 5.95703125 C2.91010705 7.65683202 3.44433985 9.33301954 4 11 C2.68 10.34 1.36 9.68 0 9 C0 6.03 0 3.06 0 0 Z " fill="#282D44" transform="translate(202,252)"/>
<path d="M0 0 C0.66 1.32 1.32 2.64 2 4 C1.01 4.495 1.01 4.495 0 5 C-0.66 5.99 -1.32 6.98 -2 8 C-2.6875 5.6875 -2.6875 5.6875 -3 3 C-1.5625 1.1875 -1.5625 1.1875 0 0 Z " fill="#122A55" transform="translate(76,243)"/>
<path d="M0 0 C0.33 0 0.66 0 1 0 C1 1.98 1 3.96 1 6 C0.01 6 -0.98 6 -2 6 C-2 4.68 -2 3.36 -2 2 C-1.34 2 -0.68 2 0 2 C0 1.34 0 0.68 0 0 Z " fill="#2B2C44" transform="translate(251,134)"/>
<path d="M0 0 C0.66 0 1.32 0 2 0 C1.67 1.65 1.34 3.3 1 5 C0.01 5 -0.98 5 -2 5 C-2 2 -2 2 0 0 Z " fill="#272E3D" transform="translate(159,125)"/>
</svg>
