<?xml version="1.0" encoding="UTF-8"?>
<svg version="1.1" xmlns="http://www.w3.org/2000/svg" width="263" height="248">
<path d="M0 0 C15.80452942 12.45205348 26.19924632 28.66645853 28.8984375 48.796875 C29.91771057 67.57502112 26.39443768 82.95306069 17.8984375 99.796875 C18.84203125 100.65667969 19.785625 101.51648438 20.7578125 102.40234375 C28.25608849 109.28713335 35.41596393 116.32140054 42.23046875 123.8828125 C45.1515579 127.07334326 48.20564291 130.07360576 51.375 133.015625 C53.98315898 136.06516473 54.91898686 138.81050561 54.8359375 142.796875 C53.66369004 146.54806686 51.8239297 148.23706933 48.8984375 150.796875 C48.5684375 151.126875 48.2384375 151.456875 47.8984375 151.796875 C43.88665584 152.56938438 40.33259505 152.66000101 36.76953125 150.515625 C33.47402711 147.67800891 30.65986083 144.52450472 27.82421875 141.23828125 C23.15214208 135.87584182 18.20036597 130.80029645 13.2109375 125.734375 C12.74131592 125.24590088 12.27169434 124.75742676 11.7878418 124.25415039 C10.41631554 122.8281891 9.02676914 121.41962846 7.63671875 120.01171875 C6.82243408 119.17761475 6.00814941 118.34351074 5.16918945 117.48413086 C3.09064297 115.5610815 3.09064297 115.5610815 0.82128906 115.92456055 C-2.4034038 117.387464 -5.53174069 119.02407809 -8.6640625 120.671875 C-25.72004237 129.42841429 -44.0440717 131.35813753 -62.47265625 125.9921875 C-80.0927937 120.1883532 -93.65957428 107.12788279 -102.1015625 90.796875 C-110.83586367 70.80108907 -111.4191618 49.4679609 -103.4765625 29.109375 C-96.75016597 12.95107578 -85.92388319 -1.11998291 -70.1015625 -9.203125 C-45.92295189 -18.92197829 -20.9931789 -14.91203136 0 0 Z M-71.51953125 18.0546875 C-82.92919154 30.61939982 -87.66307623 45.53978869 -86.9765625 62.359375 C-85.76444451 75.90165871 -80.59592911 88.50675452 -70.546875 97.90625 C-60.0407386 106.0292053 -49.53944923 108.7674027 -36.37890625 107.4140625 C-22.80629092 105.19640663 -9.66363239 99.41789394 -1.171875 88.26171875 C5.11589449 78.9866065 7.47702892 70.13355033 7.3984375 58.984375 C7.39199219 58.02168701 7.38554687 57.05899902 7.37890625 56.06713867 C6.99022124 40.86367321 0.01487023 29.43219716 -10.8515625 18.984375 C-28.78994692 3.6984651 -53.60923433 1.2338247 -71.51953125 18.0546875 Z " fill="#1C2E4D" transform="translate(160.1015625,50.203125)"/>
<path d="M0 0 C2.475 0.495 2.475 0.495 5 1 C2.27779216 4.24262993 -1.27994438 5.89759525 -5 7.75 C-5.6290625 8.07871094 -6.258125 8.40742188 -6.90625 8.74609375 C-8.56553427 9.57925132 -10.28126363 10.29763177 -12 11 C-12.99 10.67 -13.98 10.34 -15 10 C-14.34 8.68 -13.68 7.36 -13 6 C-11.948125 6.04125 -10.89625 6.0825 -9.8125 6.125 C-6.22310921 6.00731506 -4.07346675 5.80792162 -1 4 C-0.11306697 1.95894361 -0.11306697 1.95894361 0 0 Z " fill="#132037" transform="translate(155,164)"/>
<path d="M0 0 C5.12527635 4.18389906 10.17619795 8.54904814 14 14 C14 14.99 14 15.98 14 17 C13.67 16.34 13.34 15.68 13 15 C12.1028125 14.566875 12.1028125 14.566875 11.1875 14.125 C7.42432583 12.18965328 5.33600011 10.00800033 4 6 C3.319375 5.319375 2.63875 4.63875 1.9375 3.9375 C1.298125 3.298125 0.65875 2.65875 0 2 C0 1.34 0 0.68 0 0 Z " fill="#1A293F" transform="translate(189,161)"/>
<path d="M0 0 C19.96810934 -0.3690205 19.96810934 -0.3690205 29 2 C29 2.33 29 2.66 29 3 C26.68756208 3.02685412 24.3750373 3.04632841 22.0625 3.0625 C20.77472656 3.07410156 19.48695312 3.08570313 18.16015625 3.09765625 C15 3 15 3 14 2 C10.92395088 1.96828815 7.85984547 2.06853857 4.78515625 2.16015625 C2 2 2 2 0 0 Z " fill="#111B34" transform="translate(107,36)"/>
<path d="M0 0 C0.66 0 1.32 0 2 0 C4.45673545 2.76382738 5.71162598 5.56433594 7 9 C7.5878125 9.99 7.5878125 9.99 8.1875 11 C9.26111483 13.64274419 8.74938546 15.30221234 8 18 C6.2255239 15.33828585 5.14970819 13.08010934 4 10.125 C3.505 8.86042969 3.505 8.86042969 3 7.5703125 C2.505 6.29800781 2.505 6.29800781 2 5 C1.33492625 3.33269705 0.66872504 1.66584184 0 0 Z " fill="#1B283C" transform="translate(159,80)"/>
<path d="M0 0 C-1.0828125 0.7734375 -1.0828125 0.7734375 -2.1875 1.5625 C-5.50056842 4.43382597 -7.55715737 7.3706338 -10 11 C-10.58203125 9.09375 -10.58203125 9.09375 -11 7 C-9.6875 5.5 -9.6875 5.5 -8 4 C-7.67 3.29875 -7.34 2.5975 -7 1.875 C-5.21091483 -1.47953469 -3.32756532 -1.10918844 0 0 Z " fill="#18233C" transform="translate(93,66)"/>
<path d="M0 0 C2.86307491 0.93216392 5.67588677 1.85871987 8.4375 3.0625 C11.59384114 4.21725896 14.67112442 4.60836758 18 5 C17.67 5.66 17.34 6.32 17 7 C14.87363187 6.71848084 12.74891472 6.42446737 10.625 6.125 C9.44164063 5.96257812 8.25828125 5.80015625 7.0390625 5.6328125 C4 5 4 5 2 3 C1.34 2.67 0.68 2.34 0 2 C0 1.34 0 0.68 0 0 Z " fill="#121E34" transform="translate(95,152)"/>
<path d="M0 0 C3.91939465 3.80411834 7.49102731 7.81576108 11 12 C10.01 12.33 9.02 12.66 8 13 C7.5875 12.4225 7.175 11.845 6.75 11.25 C5.05680866 8.9417617 5.05680866 8.9417617 2.875 7.0625 C0.71992171 4.69191389 0.34881734 3.13935605 0 0 Z " fill="#18263B" transform="translate(81,138)"/>
<path d="M0 0 C3.7278764 2.64875428 5.74591605 4.55370235 7 9 C7 9.99 7 10.98 7 12 C6.34 12 5.68 12 5 12 C5 10.68 5 9.36 5 8 C4.34 7.67 3.68 7.34 3 7 C0 3.53846154 0 3.53846154 0 0 Z " fill="#1F283F" transform="translate(208,181)"/>
<path d="M0 0 C0.66 0.99 1.32 1.98 2 3 C1.01 4.485 1.01 4.485 0 6 C-0.66 6 -1.32 6 -2 6 C-2 6.99 -2 7.98 -2 9 C-4 10.6875 -4 10.6875 -6 12 C-6.66 11.67 -7.32 11.34 -8 11 C-5.36 7.37 -2.72 3.74 0 0 Z " fill="#1A273D" transform="translate(162,132)"/>
<path d="M0 0 C-1.05078125 1.48828125 -1.05078125 1.48828125 -3 3 C-6.35546875 3.29296875 -6.35546875 3.29296875 -10.1875 3.1875 C-11.45980469 3.16042969 -12.73210937 3.13335937 -14.04296875 3.10546875 C-15.01878906 3.07066406 -15.99460937 3.03585938 -17 3 C-17 2.67 -17 2.34 -17 2 C-15.10507994 1.66151348 -13.20901534 1.32943089 -11.3125 1 C-9.72888672 0.7215625 -9.72888672 0.7215625 -8.11328125 0.4375 C-5.35095938 0.04931926 -2.78257957 -0.08259976 0 0 Z " fill="#132036" transform="translate(132,156)"/>
<path d="M0 0 C3.16115776 1.36983503 3.9927092 1.9890638 6 5 C6.66 4.67 7.32 4.34 8 4 C8.33 4.99 8.66 5.98 9 7 C8.01 8.485 8.01 8.485 7 10 C5.83043409 8.52312468 4.66441854 7.04343707 3.5 5.5625 C2.8503125 4.73878906 2.200625 3.91507813 1.53125 3.06640625 C0 1 0 1 0 0 Z " fill="#1C2840" transform="translate(62,147)"/>
<path d="M0 0 C0.99 0 1.98 0 3 0 C3.33 0.33 3.66 0.66 4 1 C4.66 0.67 5.32 0.34 6 0 C6.66 1.65 7.32 3.3 8 5 C4.5625 4.1875 4.5625 4.1875 1 3 C0.67 2.01 0.34 1.02 0 0 Z " fill="#18263E" transform="translate(88,170)"/>
<path d="M0 0 C3.91402949 1.26941497 5.79072873 2.51167694 8 6 C5.36 5.34 2.72 4.68 0 4 C0 2.68 0 1.36 0 0 Z " fill="#17253B" transform="translate(155,48)"/>
<path d="M0 0 C3.14027363 0.33645789 4.05098295 1.05236086 6.3125 3.375 C6.869375 4.24125 7.42625 5.1075 8 6 C7.67 6.99 7.34 7.98 7 9 C5.83037314 7.69013727 4.66437056 6.3770374 3.5 5.0625 C2.8503125 4.33160156 2.200625 3.60070312 1.53125 2.84765625 C0 1 0 1 0 0 Z " fill="#192439" transform="translate(185,187)"/>
<path d="M0 0 C1.65 0.33 3.3 0.66 5 1 C2.60490662 3.89932357 0.68754757 4.50168276 -3 5 C-2.34 4.67 -1.68 4.34 -1 4 C-0.34786708 1.97536745 -0.34786708 1.97536745 0 0 Z " fill="#182741" transform="translate(155,164)"/>
<path d="M0 0 C0.33 0.66 0.66 1.32 1 2 C-1.17508418 6.69360269 -1.17508418 6.69360269 -4.1875 7.8125 C-4.785625 7.874375 -5.38375 7.93625 -6 8 C-4.55746343 4.63408134 -2.66735273 2.48952921 0 0 Z " fill="#1B263B" transform="translate(74,53)"/>
<path d="M0 0 C3.91211733 1.15585285 6.8745041 2.35534962 10 5 C7 6 7 6 4.8125 5.0625 C4.214375 4.711875 3.61625 4.36125 3 4 C3 3.34 3 2.68 3 2 C2.01 2 1.02 2 0 2 C0 1.34 0 0.68 0 0 Z " fill="#17233A" transform="translate(142,41)"/>
<path d="M0 0 C3.32901247 2.21934164 3.75023244 3.34683329 5 7 C1.535 5.02 1.535 5.02 -2 3 C-2 2.34 -2 1.68 -2 1 C-1.34 0.67 -0.68 0.34 0 0 Z " fill="#1B2940" transform="translate(162,162)"/>
<path d="M0 0 C1.99097846 2.98646769 2.94124926 5.59687262 4 9 C3.34 9 2.68 9 2 9 C2 8.34 2 7.68 2 7 C1.34 7 0.68 7 0 7 C0 4.69 0 2.38 0 0 Z " fill="#1C263D" transform="translate(76,127)"/>
</svg>
