<?xml version="1.0" encoding="UTF-8"?>
<svg version="1.1" xmlns="http://www.w3.org/2000/svg" width="260" height="271">
<path d="M0 0 C11.33273742 8.82797474 20.24139735 20.59396395 23 35 C24.18947694 48.86423127 20.50643857 61.49562474 12.06640625 72.52734375 C2.52761289 83.83446956 -10.1477369 90.75160647 -24.87109375 92.4453125 C-41.16038358 92.9454954 -54.16850292 86.14588011 -65.93359375 75.22265625 C-76.04521973 64.34644607 -80.37765301 50.83540372 -80.21484375 36.21875 C-79.3770252 23.66670482 -74.3923838 11.52403133 -65 3 C-46.04265935 -11.43946975 -20.05839097 -14.06599152 0 0 Z M-49 25 C-52.89233134 30.31871363 -53.88389367 35.53652751 -53 42 C-51.44375657 50.01743265 -47.27269305 56.54153713 -40.9296875 61.67578125 C-35.17136502 65.33923014 -29.70421993 66.05281083 -23 65 C-15.65580668 62.81346258 -10.82278092 57.4814298 -6.125 51.6875 C-4.05919428 46.75251966 -3.22844792 41.74377791 -4.6953125 36.52734375 C-8.20697447 28.24590469 -13.90696944 22.04651528 -22 18 C-32.30981537 17.24063683 -40.82899232 18.12892536 -49 25 Z " fill="#1E3150" transform="translate(162,46)"/>
<path d="M0 0 C1.22460938 0.10957031 2.44921875 0.21914062 3.7109375 0.33203125 C22.19575452 2.19226178 39.25099358 8.448045 51.625 22.75 C60.09753746 34.31367882 68.58425215 49.80202391 67.97265625 64.61328125 C67.12553722 69.81973189 65.17311173 73.59791685 60.9375 76.75 C55.68931278 78.33435841 50.98805027 78.64270788 45.8125 76.6875 C41.01489543 72.43819309 39.58627079 68.36120311 38.8125 62.1875 C37.37900799 52.16563044 31.87535326 39.9930834 23.625 33.75 C19.74536594 31.77346719 15.85981499 30.71862619 11.625 29.75 C10.98159668 29.60191895 10.33819336 29.45383789 9.67529297 29.30126953 C-8.39118029 25.31178685 -25.973541 26.02771392 -44.125 29 C-45.38602539 29.20431641 -46.64705078 29.40863281 -47.94628906 29.61914062 C-57.40769139 31.28894823 -68.4213902 33.53030819 -75.375 40.75 C-80.48930886 48.1358237 -81.84317489 56.31491613 -82.5703125 65.11328125 C-82.98108122 69.85498107 -83.93795056 72.41115197 -87.375 75.75 C-91.65914021 78.29538874 -95.50790798 78.38198328 -100.375 77.75 C-104.08548901 76.68884288 -106.53096593 75.22480686 -108.47265625 71.83203125 C-112.7016242 60.71869688 -110.48088798 47.40344982 -106.12109375 36.66015625 C-97.98376858 20.85112943 -83.88730523 11.4011579 -67.375 5.75 C-66.34117188 5.39292969 -65.30734375 5.03585938 -64.2421875 4.66796875 C-43.57559473 -1.61674682 -21.32345778 -2.1635726 0 0 Z " fill="#1D3050" transform="translate(154.375,161.25)"/>
<path d="M0 0 C0.33 0.66 0.66 1.32 1 2 C0.328125 3.84765625 0.328125 3.84765625 -0.75 6.0625 C-2.87505341 10.61408499 -4.49144694 15.21490812 -6 20 C-6.33 20.99 -6.66 21.98 -7 23 C-7.08239169 24.84610532 -7.10743359 26.69505164 -7.09765625 28.54296875 C-7.09443359 29.61611328 -7.09121094 30.68925781 -7.08789062 31.79492188 C-7.07951172 32.91447266 -7.07113281 34.03402344 -7.0625 35.1875 C-7.05798828 36.31865234 -7.05347656 37.44980469 -7.04882812 38.61523438 C-7.03703498 41.41020927 -7.0205765 44.2050782 -7 47 C-7.66 46.67 -8.32 46.34 -9 46 C-12.85898878 34.2086454 -11.50234681 20.97601115 -6.53515625 9.6640625 C-4.62061781 6.09712291 -2.87128145 2.87128145 0 0 Z " fill="#4F414B" transform="translate(55,188)"/>
<path d="M0 0 C2.475 0.99 2.475 0.99 5 2 C5 2.66 5 3.32 5 4 C5.59554687 4.103125 6.19109375 4.20625 6.8046875 4.3125 C10.75108575 5.54838273 12.83136393 8.60395407 15 12 C17.30590781 17.73868458 17.77359998 24.05742077 16 30 C13.62982105 34.53456392 11.28282097 38.14478602 7 41 C8.1544119 38.49877421 9.34576628 36.55993383 11.0625 34.375 C13.62759505 29.90676992 14.33915118 26.13351552 14 21 C12.83577952 16.97476961 11.36097106 13.35124984 8.359375 10.37109375 C7 9 7 9 7 7 C6.401875 6.773125 5.80375 6.54625 5.1875 6.3125 C2.43648112 4.66188867 1.47515363 2.8027919 0 0 Z " fill="#272E41" transform="translate(143,64)"/>
<path d="M0 0 C3 1 3 1 4.28125 2.99609375 C4.6834375 3.80175781 5.085625 4.60742188 5.5 5.4375 C7.16365921 8.75948619 7.81122132 9.87414755 11 12 C11.1875 14.625 11.1875 14.625 11 17 C11.66 17 12.32 17 13 17 C13.13277344 17.90363281 13.26554688 18.80726563 13.40234375 19.73828125 C13.57894531 20.91777344 13.75554687 22.09726563 13.9375 23.3125 C14.11152344 24.48425781 14.28554687 25.65601563 14.46484375 26.86328125 C14.92093031 30.01641403 14.92093031 30.01641403 16 33 C16.66 33 17.32 33 18 33 C18.33 34.32 18.66 35.64 19 37 C15.38978976 36.09744744 14.09398833 35.12352752 11.8125 32.125 C10.13420594 28.92038339 9.63599274 26.01112836 9.1875 22.4375 C8.14340497 14.79047063 4.66688664 8.67207944 1 2 C0.67 1.34 0.34 0.68 0 0 Z " fill="#5B484F" transform="translate(184,201)"/>
<path d="M0 0 C0.66 0 1.32 0 2 0 C1.77183594 1.71123047 1.77183594 1.71123047 1.5390625 3.45703125 C1.16544651 6.41276332 0.89318864 9.35082507 0.7109375 12.32421875 C-0.10916682 23.83284356 -0.10916682 23.83284356 -2.6875 27.2109375 C-4.625 28.5625 -4.625 28.5625 -8 30 C-8.33 29.34 -8.66 28.68 -9 28 C-8.34 28 -7.68 28 -7 28 C-4.61380171 21.09593294 -3.37160172 14.3541405 -2.52734375 7.1015625 C-2.05140998 4.30236685 -1.43560543 2.41848882 0 0 Z " fill="#1C3D67" transform="translate(72,207)"/>
<path d="M0 0 C0 0.99 0 1.98 0 3 C-2.31 3.66 -4.62 4.32 -7 5 C-7 5.66 -7 6.32 -7 7 C-7.61875 7.226875 -8.2375 7.45375 -8.875 7.6875 C-11.63791327 9.39400526 -11.83995819 11.02739286 -13 14 C-16.31034483 17 -16.31034483 17 -19 17 C-19.268125 17.61875 -19.53625 18.2375 -19.8125 18.875 C-21 21 -21 21 -24 23 C-20.47638963 12.74949711 -14.46777997 6.73388999 -4.796875 1.8984375 C-3.21995786 1.21254265 -1.61300132 0.59610918 0 0 Z " fill="#2B2D42" transform="translate(113,40)"/>
<path d="M0 0 C5.91260345 -0.25706972 11.23918159 0.7017874 17 2 C17.33 1.34 17.66 0.68 18 0 C18.07605469 0.62648437 18.15210938 1.25296875 18.23046875 1.8984375 C18.7910657 4.16923123 18.7910657 4.16923123 20.92578125 4.9765625 C21.71339844 5.19054687 22.50101563 5.40453125 23.3125 5.625 C31.23389831 7.85084746 31.23389831 7.85084746 34 12 C34 12.99 34 13.98 34 15 C31.29179726 13.85422192 29.77056967 12.76436885 27.6875 10.625 C20.65430924 4.55820187 7.8242943 3.57799145 -1 2 C-0.67 1.34 -0.34 0.68 0 0 Z " fill="#242D42" transform="translate(152,186)"/>
<path d="M0 0 C0.99 1.32 1.98 2.64 3 4 C0.60490662 6.89932357 -1.31245243 7.50168276 -5 8 C-5.33 9.32 -5.66 10.64 -6 12 C-7.32 12 -8.64 12 -10 12 C-10.33 12.99 -10.66 13.98 -11 15 C-11.66 14.67 -12.32 14.34 -13 14 C-11.40958642 7.43954396 -5.34588597 3.56392398 0 0 Z " fill="#242D43" transform="translate(68,176)"/>
<path d="M0 0 C0.33 0.66 0.66 1.32 1 2 C-0.65 2.33 -2.3 2.66 -4 3 C-4.33 4.65 -4.66 6.3 -5 8 C-5.99580078 8.09087891 -5.99580078 8.09087891 -7.01171875 8.18359375 C-13.54908081 8.79863507 -13.54908081 8.79863507 -20 10 C-15.21520966 4.51109336 -6.80363011 2.02270084 0 0 Z " fill="#1C283E" transform="translate(90,166)"/>
<path d="M0 0 C1 3 1 3 0 6 C-0.66 6 -1.32 6 -2 6 C-2.2475 6.804375 -2.495 7.60875 -2.75 8.4375 C-3.1625 9.283125 -3.575 10.12875 -4 11 C-6.0625 11.625 -6.0625 11.625 -8 12 C-8.33 12.99 -8.66 13.98 -9 15 C-10.32 15 -11.64 15 -13 15 C-13 15.66 -13 16.32 -13 17 C-15.52475462 18.26237731 -17.31200466 18.09856404 -20.125 18.0625 C-21.03507813 18.05347656 -21.94515625 18.04445313 -22.8828125 18.03515625 C-23.93082031 18.01775391 -23.93082031 18.01775391 -25 18 C-25 17.67 -25 17.34 -25 17 C-24.443125 16.91363281 -23.88625 16.82726562 -23.3125 16.73828125 C-14.85566152 15.18119443 -8.68931646 11.50207596 -3 5 C-1.94712186 3.36622358 -0.9272999 1.70818403 0 0 Z " fill="#292F40" transform="translate(158,94)"/>
<path d="M0 0 C1.94140625 0.71484375 1.94140625 0.71484375 4 2 C5.93610017 7.59670487 5.16969515 13.45154825 3.1015625 18.8828125 C1.27307573 22.39713814 -1.22108957 25.20310309 -4 28 C-4 25 -4 25 -1.5625 21.9375 C1.68532816 17.56400413 2.18360368 13.36623484 2 8 C1.53943623 5.20501009 0.85407628 2.71294818 0 0 Z " fill="#5B4C4D" transform="translate(155,77)"/>
<path d="M0 0 C1.98 0 3.96 0 6 0 C3.98502835 2.01497165 1.98118437 4.01715543 -0.125 5.9375 C-4.10192266 10.31211493 -4.23244736 14.56406627 -4.125 20.3125 C-4.10695313 21.56675781 -4.08890625 22.82101563 -4.0703125 24.11328125 C-4.04710938 25.06589844 -4.02390625 26.01851562 -4 27 C-6.35616475 23.46575288 -6.2981228 21.81355898 -6.3125 17.625 C-6.32925781 16.50351563 -6.34601563 15.38203125 -6.36328125 14.2265625 C-5.96608404 10.69876791 -4.91066014 8.93404802 -3 6 C-3 5.01 -3 4.02 -3 3 C-2.01 3 -1.02 3 0 3 C0 2.01 0 1.02 0 0 Z " fill="#224C78" transform="translate(114,66)"/>
<path d="M0 0 C0.33 0 0.66 0 1 0 C1.30659554 9.15244471 1.49409003 17.34796755 -2 26 C-4 22.25 -4 22.25 -4 20 C-3.01 20 -2.02 20 -1 20 C-1.01160156 18.80761719 -1.02320313 17.61523438 -1.03515625 16.38671875 C-1.04453592 14.82031406 -1.05363593 13.25390769 -1.0625 11.6875 C-1.07506836 10.50897461 -1.07506836 10.50897461 -1.08789062 9.30664062 C-1.09111328 8.54931641 -1.09433594 7.79199219 -1.09765625 7.01171875 C-1.10289307 6.31522217 -1.10812988 5.61872559 -1.11352539 4.90112305 C-1 3 -1 3 0 0 Z " fill="#0F2E5C" transform="translate(182,80)"/>
<path d="M0 0 C0 0.33 0 0.66 0 1 C-0.95712891 1.07347656 -0.95712891 1.07347656 -1.93359375 1.1484375 C-2.75988281 1.22320312 -3.58617188 1.29796875 -4.4375 1.375 C-5.67306641 1.47941406 -5.67306641 1.47941406 -6.93359375 1.5859375 C-7.61550781 1.72257813 -8.29742187 1.85921875 -9 2 C-9.33 2.66 -9.66 3.32 -10 4 C-10 3.34 -10 2.68 -10 2 C-15.61 2.66 -21.22 3.32 -27 4 C-27 3.34 -27 2.68 -27 2 C-17.95960217 0.72958023 -9.15564771 -0.34915606 0 0 Z " fill="#1F2A3D" transform="translate(129,161)"/>
<path d="M0 0 C0.33 0 0.66 0 1 0 C1.28469361 3.70101696 0.92271103 6.41857538 -0.4375 9.8125 C-3.01528129 16.8649205 -2.7527758 24.57474909 -3 32 C-3.33 32 -3.66 32 -4 32 C-4.76595745 10.46808511 -4.76595745 10.46808511 0 0 Z " fill="#342E3D" transform="translate(88,63)"/>
<path d="M0 0 C1.67542976 0.28604898 3.34385343 0.61781233 5 1 C5.103125 1.680625 5.20625 2.36125 5.3125 3.0625 C5.94060555 6.1628764 5.94060555 6.1628764 7.5625 9.5 C8.89091078 12.73439147 9.3108251 14.58092386 9 18 C8.67 17.01 8.34 16.02 8 15 C7.34 15 6.68 15 6 15 C5.86335937 14.42507812 5.72671875 13.85015625 5.5859375 13.2578125 C5.02206438 11.08502142 4.37322864 8.99095841 3.625 6.875 C3.39039063 6.19179687 3.15578125 5.50859375 2.9140625 4.8046875 C2.00901228 2.65093942 2.00901228 2.65093942 -1 1 C-0.67 0.67 -0.34 0.34 0 0 Z " fill="#0E2854" transform="translate(173,62)"/>
<path d="M0 0 C2.31 0 4.62 0 7 0 C7.67408308 1.26691507 8.33900497 2.53870749 9 3.8125 C9.556875 4.87404297 9.556875 4.87404297 10.125 5.95703125 C11 8 11 8 11 11 C10.16094435 9.87926138 9.32892169 8.75325453 8.5 7.625 C8.0359375 6.99851562 7.571875 6.37203125 7.09375 5.7265625 C6 4 6 4 6 2 C5.34 2 4.68 2 4 2 C3.67 2.99 3.34 3.98 3 5 C2.01 4.67 1.02 4.34 0 4 C0 2.68 0 1.36 0 0 Z " fill="#1E3A61" transform="translate(104,92)"/>
<path d="M0 0 C2.375 0.3125 2.375 0.3125 5 1 C5.66 1.99 6.32 2.98 7 4 C7.66 3.67 8.32 3.34 9 3 C9 3.99 9 4.98 9 6 C6.36 5.67 3.72 5.34 1 5 C0.67 3.35 0.34 1.7 0 0 Z " fill="#222D42" transform="translate(50,233)"/>
<path d="M0 0 C0.99 0.33 1.98 0.66 3 1 C3 1.66 3 2.32 3 3 C3.66 3 4.32 3 5 3 C5.20496094 3.55429688 5.40992187 4.10859375 5.62109375 4.6796875 C5.89050781 5.40414062 6.15992187 6.12859375 6.4375 6.875 C6.83775391 7.95394531 6.83775391 7.95394531 7.24609375 9.0546875 C7.97916854 11.03648845 7.97916854 11.03648845 9 13 C5.59155912 11.62090338 4.33262465 10.39436506 2.8125 7.0625 C2.48894531 6.37285156 2.16539063 5.68320313 1.83203125 4.97265625 C1.14553292 3.34504283 0.55860589 1.67581767 0 0 Z " fill="#32354D" transform="translate(90,109)"/>
<path d="M0 0 C3.13671875 0.14453125 3.13671875 0.14453125 6.6875 0.8125 C8.45673828 1.13154297 8.45673828 1.13154297 10.26171875 1.45703125 C11.61716797 1.72580078 11.61716797 1.72580078 13 2 C13 2.33 13 2.66 13 3 C7.72 3 2.44 3 -3 3 C-2.01 2.01 -1.02 1.02 0 0 Z " fill="#212E44" transform="translate(132,184)"/>
<path d="M0 0 C2.475 0.495 2.475 0.495 5 1 C5 1.66 5 2.32 5 3 C5.969375 3.28875 6.93875 3.5775 7.9375 3.875 C11 5 11 5 12 7 C7.24518354 6.42365861 4.02951788 4.44931479 0 2 C0 1.34 0 0.68 0 0 Z " fill="#232B3C" transform="translate(107,128)"/>
<path d="M0 0 C0.66 0.33 1.32 0.66 2 1 C0.68 3.31 -0.64 5.62 -2 8 C-2.99 8 -3.98 8 -5 8 C-3.8141763 4.62496331 -2.72426311 2.35277269 0 0 Z " fill="#393445" transform="translate(60,182)"/>
<path d="M0 0 C3.09592835 3.5087188 4.74194623 6.49197399 6 11 C3.08938949 9.93277615 2.17140971 9.36086255 0.8125 6.5 C0.544375 5.675 0.27625 4.85 0 4 C-0.33 3.34 -0.66 2.68 -1 2 C-0.67 1.34 -0.34 0.68 0 0 Z " fill="#0C2754" transform="translate(209,193)"/>
<path d="M0 0 C0.66 0.33 1.32 0.66 2 1 C1.360625 1.78375 0.72125 2.5675 0.0625 3.375 C-1.98142313 5.79539281 -1.98142313 5.79539281 -3 8 C-4.65 8 -6.3 8 -8 8 C-5.33333333 5.33333333 -2.66666667 2.66666667 0 0 Z " fill="#112A4F" transform="translate(169,119)"/>
<path d="M0 0 C1.98 0.99 1.98 0.99 4 2 C4 4.97 4 7.94 4 11 C1.54176828 7.31265242 0.98757384 4.30300029 0 0 Z " fill="#625759" transform="translate(155,77)"/>
<path d="M0 0 C1.98 0.99 1.98 0.99 4 2 C4 2.66 4 3.32 4 4 C4.66 4 5.32 4 6 4 C6.33 5.32 6.66 6.64 7 8 C3.34683329 6.75023244 2.21934164 6.32901247 0 3 C0 2.01 0 1.02 0 0 Z " fill="#484650" transform="translate(196,230)"/>
<path d="M0 0 C0.66 0 1.32 0 2 0 C2 1.65 2 3.3 2 5 C1.01 5.495 1.01 5.495 0 6 C-0.65555119 8.52733235 -0.65555119 8.52733235 -1 11 C-1.33 11 -1.66 11 -2 11 C-2.28571429 3.57142857 -2.28571429 3.57142857 0 0 Z " fill="#11315B" transform="translate(72,207)"/>
<path d="M0 0 C0 0.99 0 1.98 0 3 C-2.1875 4.75 -2.1875 4.75 -5 6 C-7.8125 5.6875 -7.8125 5.6875 -10 5 C-7.7986336 3.85855076 -5.62104295 2.85017977 -3.3125 1.9375 C-1.07564034 1.20552034 -1.07564034 1.20552034 0 0 Z " fill="#1F3856" transform="translate(163,126)"/>
<path d="M0 0 C1.9375 0.6875 1.9375 0.6875 4 2 C4.75 4.625 4.75 4.625 5 7 C4.01 6.67 3.02 6.34 2 6 C0.8125 2.9375 0.8125 2.9375 0 0 Z " fill="#272F44" transform="translate(96,117)"/>
<path d="M0 0 C6.875 3.625 6.875 3.625 8 7 C4.66272214 5.82744291 2.22562513 4.81131596 0 2 C0 1.34 0 0.68 0 0 Z " fill="#363844" transform="translate(151,72)"/>
</svg>
